<?xml version="1.0" encoding="utf-8"?>
<!-- Generator: Adobe Illustrator 25.3.1, SVG Export Plug-In . SVG Version: 6.00 Build 0)  -->
<svg version="1.1" id="Layer_1" xmlns="http://www.w3.org/2000/svg" xmlns:xlink="http://www.w3.org/1999/xlink" x="0px" y="0px"
	 viewBox="0 0 482 82.7" style="enable-background:new 0 0 482 82.7;" xml:space="preserve">
<style type="text/css">
	.st0{fill:none;}
	.st1{fill:none;stroke:#C9942B;stroke-width:4;stroke-linecap:round;stroke-linejoin:round;stroke-miterlimit:10;}
	.st2{fill:#86C6E3;}
	.st3{fill:#2374A5;}
	.st4{fill:#291E3B;}
</style>
<rect x="0" class="st0" width="482" height="82.7"/>
<path class="st1" d="M148,49.5"/>
<g>
	<g>
		<path class="st2" d="M15.1,20.4v48h48c1,0,1.8-0.8,1.8-1.8V48.9c0-1-0.8-1.8-1.8-1.8H36.8V20.4c0-1-0.8-1.8-1.8-1.8H16.9
			C15.9,18.6,15.1,19.4,15.1,20.4z"/>
		<path id="Rectangle_1529_12_" class="st3" d="M70.8,14.3H51.4c-0.9,0-1.6,0.7-1.6,1.6v19.4h19.4c0.9,0,1.6-0.7,1.6-1.6V14.3z"/>
	</g>
	<g>
		<g>
			<path class="st4" d="M105.4,26.1v12.2h12V26.1h6.5V57h-6.5V43.8h-12V57h-6.5V26.1H105.4z"/>
			<path class="st4" d="M128.5,41.6c0-9.2,6.2-15.9,14.4-15.9c6.4,0,11.7,4.2,13.3,10.5l-6.2,1.6c-0.9-3.9-3.6-6.5-7.2-6.5
				c-4.6,0-7.7,4.4-7.7,10.3c0,6,3.3,10.3,7.8,10.3c3.6,0,6.3-2.6,7.2-6.5l6.1,1.5c-1.7,6.4-7.1,10.5-13.5,10.5
				C134.5,57.4,128.5,50.8,128.5,41.6z"/>
			<path class="st4" d="M183.4,35.6c0,5.7-4.3,9.5-10.3,9.5h-5.8V57h-6.5V26.1H173C179.1,26.1,183.4,29.6,183.4,35.6z M176.8,35.6
				c0-2.7-1.9-4.1-4.5-4.1h-5v8.3h5C175.1,39.8,176.8,38.3,176.8,35.6z"/>
		</g>
		<g>
			<path class="st4" d="M194.7,56.6V27.8h14.9c1.7,0,3.1,0.3,4.3,0.9c1.2,0.6,2.1,1.4,2.8,2.4s1,2.3,1,3.7c0,1.1-0.2,2.1-0.6,3
				c-0.4,0.9-0.9,1.7-1.6,2.3c-0.7,0.6-1.5,1.1-2.4,1.4v0.2c1,0.2,1.9,0.6,2.7,1.2c0.8,0.6,1.5,1.4,2,2.3c0.5,1,0.7,2.1,0.7,3.5
				c0,1.9-0.4,3.4-1.2,4.5c-0.8,1.1-1.8,2-3.2,2.5s-2.8,0.8-4.5,0.8H194.7z M198.7,40.1h10.1c1,0,1.8-0.2,2.5-0.6
				c0.7-0.4,1.3-0.9,1.7-1.6c0.4-0.7,0.6-1.5,0.6-2.3c0-1.5-0.4-2.6-1.2-3.3c-0.8-0.7-1.9-1.1-3.2-1.1h-10.4V40.1z M198.7,53.1h10.8
				c1.4,0,2.6-0.4,3.5-1.1c0.9-0.7,1.3-2,1.3-3.7c0-1.1-0.2-2-0.6-2.7c-0.4-0.7-1-1.2-1.7-1.6c-0.8-0.3-1.7-0.5-2.9-0.5h-10.5V53.1z
				"/>
			<path class="st4" d="M232.1,57.1c-2.2,0-4-0.4-5.5-1.2c-1.5-0.8-2.6-2.1-3.4-3.8c-0.8-1.7-1.2-3.9-1.2-6.5c0-2.7,0.4-4.8,1.2-6.5
				c0.8-1.7,1.9-3,3.4-3.8c1.5-0.8,3.4-1.2,5.7-1.2c2.1,0,3.8,0.4,5.2,1.2s2.5,2,3.2,3.6s1.1,3.6,1.1,5.9v1.8h-15.9
				c0.1,1.8,0.3,3.2,0.8,4.3c0.5,1.1,1.2,2,2.1,2.5c0.9,0.5,2.1,0.8,3.5,0.8c1,0,1.8-0.1,2.5-0.4c0.7-0.2,1.3-0.6,1.8-1
				c0.5-0.4,0.9-1,1.1-1.6c0.3-0.6,0.4-1.3,0.4-2h3.6c0,1.2-0.3,2.3-0.7,3.3s-1,1.8-1.8,2.5c-0.8,0.7-1.8,1.2-3,1.6
				C235,56.9,233.7,57.1,232.1,57.1z M226,43.7h12c0-1.2-0.1-2.3-0.4-3.1s-0.7-1.5-1.2-2.1c-0.5-0.5-1.1-0.9-1.8-1.2
				c-0.7-0.2-1.5-0.4-2.3-0.4c-1.3,0-2.4,0.2-3.3,0.7c-0.9,0.5-1.6,1.2-2.1,2.2C226.4,40.9,226.1,42.1,226,43.7z"/>
			<path class="st4" d="M246.3,56.6V34.5h3l0.3,3.3h0.3c0.6-0.9,1.3-1.6,2-2.2c0.7-0.6,1.6-1,2.5-1.2c0.9-0.3,1.9-0.4,2.9-0.4
				c1.4,0,2.6,0.2,3.7,0.7s1.9,1.2,2.5,2.3c0.6,1.1,0.9,2.5,0.9,4.3v15.2h-3.7V41.8c0-0.9-0.1-1.7-0.4-2.3c-0.2-0.6-0.6-1-1-1.4
				c-0.4-0.3-0.9-0.6-1.5-0.7s-1.2-0.2-1.9-0.2c-1,0-2,0.3-2.9,0.8c-0.9,0.5-1.7,1.2-2.2,2.2c-0.5,1-0.8,2.1-0.8,3.4v13H246.3z"/>
			<path class="st4" d="M278.4,57.1c-2.1,0-3.9-0.4-5.4-1.2c-1.4-0.8-2.5-2.1-3.3-3.8c-0.7-1.7-1.1-3.9-1.1-6.5
				c0-2.6,0.4-4.8,1.1-6.5c0.7-1.7,1.8-3,3.3-3.8c1.5-0.8,3.3-1.3,5.4-1.3c1.5,0,2.8,0.2,3.9,0.6c1.1,0.4,2,1,2.8,1.7
				c0.7,0.8,1.3,1.7,1.6,2.7c0.3,1.1,0.5,2.3,0.5,3.7h-3.7c0-1.3-0.2-2.3-0.5-3.2c-0.4-0.8-0.9-1.4-1.7-1.8s-1.8-0.6-3-0.6
				s-2.3,0.3-3.2,0.8c-0.9,0.5-1.6,1.4-2.1,2.6c-0.5,1.2-0.7,2.7-0.7,4.7V46c0,1.8,0.2,3.3,0.7,4.5c0.5,1.2,1.1,2.1,2,2.6
				c0.9,0.6,2,0.8,3.3,0.8c1.3,0,2.3-0.2,3-0.7c0.8-0.4,1.3-1.1,1.7-1.9c0.3-0.8,0.5-1.8,0.5-3h3.6c0,1.2-0.2,2.4-0.5,3.4
				c-0.4,1.1-0.9,2-1.6,2.8c-0.7,0.8-1.7,1.4-2.8,1.8C281.3,56.9,280,57.1,278.4,57.1z"/>
			<path class="st4" d="M291.8,56.6V26.2h3.7v11h0.3c0.6-0.8,1.2-1.4,1.9-1.8c0.7-0.5,1.5-0.8,2.3-1.1c0.9-0.2,1.8-0.4,2.8-0.4
				c1.4,0,2.6,0.2,3.7,0.7s1.9,1.2,2.5,2.3c0.6,1.1,0.9,2.5,0.9,4.3v15.2h-3.7V41.8c0-0.9-0.1-1.7-0.4-2.3c-0.2-0.6-0.6-1-1-1.4
				c-0.4-0.3-0.9-0.6-1.5-0.7s-1.2-0.2-1.9-0.2c-1,0-2,0.2-2.9,0.7s-1.7,1.2-2.2,2.1c-0.5,0.9-0.8,2.1-0.8,3.5v13H291.8z"/>
			<path class="st4" d="M315.4,56.6V34.5h3l0.3,3.3h0.3c0.6-0.9,1.2-1.6,1.9-2.2c0.7-0.6,1.5-1,2.3-1.2c0.8-0.3,1.8-0.4,2.7-0.4
				c1.4,0,2.7,0.3,3.7,0.9s1.8,1.6,2.3,3h0.3c0.5-0.9,1.1-1.6,1.8-2.2c0.7-0.5,1.5-1,2.4-1.2c0.9-0.3,1.8-0.4,2.8-0.4
				c1.3,0,2.5,0.2,3.5,0.7c1,0.5,1.8,1.2,2.4,2.3c0.6,1.1,0.9,2.5,0.9,4.2v15.4h-3.7V41.8c0-0.9-0.1-1.6-0.3-2.2s-0.5-1-0.9-1.4
				c-0.4-0.3-0.8-0.6-1.4-0.7c-0.5-0.1-1.1-0.2-1.7-0.2c-1,0-1.9,0.3-2.7,0.8c-0.8,0.5-1.5,1.2-2,2.2c-0.5,1-0.8,2.1-0.8,3.4v13
				h-3.7V41.8c0-0.9-0.1-1.6-0.3-2.2c-0.2-0.6-0.5-1-0.9-1.4c-0.4-0.3-0.8-0.6-1.3-0.7c-0.5-0.1-1.1-0.2-1.6-0.2
				c-1,0-1.9,0.3-2.8,0.8c-0.9,0.5-1.5,1.2-2,2.2c-0.5,1-0.8,2.1-0.8,3.4v13H315.4z"/>
			<path class="st4" d="M357.1,57.1c-0.8,0-1.6-0.1-2.4-0.3c-0.8-0.2-1.6-0.5-2.3-1c-0.7-0.4-1.3-1.1-1.7-1.9
				c-0.4-0.8-0.6-1.8-0.6-3c0-1.5,0.4-2.8,1.1-3.7c0.7-1,1.7-1.7,3-2.3c1.3-0.5,2.8-0.9,4.6-1.1c1.8-0.2,3.7-0.3,5.8-0.3V41
				c0-0.8-0.1-1.5-0.4-2.1c-0.3-0.6-0.8-1-1.5-1.4s-1.7-0.5-3-0.5c-1.3,0-2.3,0.2-3,0.5c-0.7,0.3-1.3,0.7-1.6,1.2s-0.4,1.1-0.4,1.7
				V41h-3.6c0-0.1,0-0.3,0-0.4s0-0.3,0-0.5c0-1.3,0.4-2.5,1.1-3.4s1.8-1.6,3.1-2.1c1.3-0.5,2.9-0.7,4.6-0.7c1.8,0,3.4,0.3,4.6,0.8
				c1.2,0.5,2.2,1.3,2.8,2.3s0.9,2.2,0.9,3.5v12c0,0.5,0.1,0.9,0.4,1.1c0.3,0.2,0.6,0.3,0.9,0.3h1.6v2.4c-0.4,0.2-0.8,0.3-1.3,0.4
				c-0.5,0.1-1,0.2-1.6,0.2c-0.7,0-1.3-0.1-1.8-0.4c-0.5-0.3-0.8-0.7-1.1-1.2c-0.3-0.5-0.4-1.1-0.5-1.7h-0.3
				c-0.5,0.7-1.1,1.3-1.9,1.8c-0.8,0.5-1.6,0.9-2.6,1.2S358.2,57.1,357.1,57.1z M358,54c0.9,0,1.7-0.1,2.5-0.4s1.5-0.7,2.1-1.2
				c0.6-0.5,1.1-1.1,1.5-1.9c0.4-0.7,0.5-1.5,0.5-2.4v-1.8c-2.3,0-4.2,0.1-5.8,0.4s-2.8,0.7-3.7,1.3c-0.9,0.6-1.3,1.6-1.3,2.7
				c0,0.8,0.2,1.4,0.5,1.8s0.8,0.8,1.4,1.1C356.5,53.9,357.2,54,358,54z"/>
			<path class="st4" d="M374.4,56.6V34.5h3l0.3,3.7h0.3c0.2-0.7,0.5-1.4,0.9-2c0.4-0.6,0.9-1.1,1.6-1.6s1.5-0.6,2.5-0.6
				c0.4,0,0.8,0,1.2,0.1c0.3,0.1,0.6,0.1,0.8,0.2v3.4h-1.4c-1,0-1.8,0.2-2.5,0.5c-0.7,0.3-1.3,0.8-1.7,1.4c-0.4,0.6-0.8,1.3-1,2.1
				c-0.2,0.8-0.3,1.7-0.3,2.6v12.3H374.4z"/>
			<path class="st4" d="M388.4,56.6V26.2h3.7v19l9.4-10.7h4.4l-7.6,8.6l8,13.5H402l-6.1-10.8l-3.8,3.8v7H388.4z"/>
			<path class="st4" d="M410,30.3v-4.1h3.7v4.1H410z M410,56.6V34.5h3.7v22.1H410z"/>
			<path class="st4" d="M419.4,56.6V34.5h3l0.3,3.3h0.3c0.6-0.9,1.3-1.6,2-2.2c0.7-0.6,1.6-1,2.5-1.2c0.9-0.3,1.9-0.4,2.9-0.4
				c1.4,0,2.6,0.2,3.7,0.7s1.9,1.2,2.5,2.3c0.6,1.1,0.9,2.5,0.9,4.3v15.2h-3.7V41.8c0-0.9-0.1-1.7-0.4-2.3c-0.2-0.6-0.6-1-1-1.4
				c-0.4-0.3-0.9-0.6-1.5-0.7s-1.2-0.2-1.9-0.2c-1,0-2,0.3-2.9,0.8c-0.9,0.5-1.7,1.2-2.2,2.2c-0.5,1-0.8,2.1-0.8,3.4v13H419.4z"/>
			<path class="st4" d="M446.8,64.2c-1.1,0-2-0.2-2.9-0.7c-0.9-0.4-1.6-1.1-2.1-1.9c-0.5-0.8-0.8-1.8-0.8-2.9c0-1.2,0.3-2.3,1-3.1
				c0.7-0.8,1.5-1.4,2.5-1.8c-0.7-0.3-1.2-0.8-1.6-1.4c-0.4-0.6-0.6-1.3-0.6-2c0-1,0.4-1.8,1.1-2.5s1.6-1.1,2.6-1.3
				c-1-0.6-1.7-1.4-2.2-2.4c-0.5-1-0.8-2-0.8-3.2c0-1.4,0.3-2.6,1-3.7c0.7-1.1,1.7-1.9,3-2.5c1.4-0.6,3-0.9,5-0.9
				c0.9,0,1.7,0.1,2.5,0.2c0.8,0.1,1.5,0.3,2.1,0.6c1-0.4,1.7-1,2.2-1.7c0.5-0.7,0.8-1.4,0.9-2.1h3.7c0,0.8-0.2,1.6-0.6,2.4
				c-0.4,0.7-0.9,1.4-1.5,1.8c-0.6,0.5-1.4,0.8-2.4,1c0.7,0.7,1.2,1.4,1.6,2.3s0.5,1.8,0.5,2.7c0,1.4-0.3,2.6-1,3.7s-1.6,1.9-3,2.5
				s-3,0.9-5,0.9h-3.4c-0.8,0-1.4,0.1-1.8,0.4c-0.5,0.3-0.7,0.8-0.7,1.4c0,0.6,0.2,1,0.7,1.4c0.5,0.3,1.1,0.5,1.8,0.5h9
				c1.6,0,3,0.5,4,1.6c1,1.1,1.6,2.5,1.6,4.1c0,1.2-0.3,2.3-0.9,3.3c-0.6,1-1.4,1.7-2.5,2.3s-2.3,0.9-3.8,0.9H446.8z M447.9,61.4
				h7.9c0.6,0,1.2-0.1,1.8-0.4s1-0.6,1.3-1.1c0.3-0.5,0.5-1,0.5-1.6c0-1-0.3-1.7-0.8-2.3c-0.6-0.6-1.3-0.8-2.1-0.8h-8.5
				c-0.9,0-1.7,0.3-2.3,0.9c-0.6,0.6-0.9,1.3-0.9,2.2c0,0.9,0.3,1.7,0.9,2.2C446.2,61.1,447,61.4,447.9,61.4z M451.8,45.5
				c1.8,0,3.1-0.4,4-1.2c0.9-0.8,1.3-1.9,1.3-3.2c0-1.3-0.4-2.4-1.3-3.2c-0.9-0.8-2.2-1.2-4-1.2s-3.1,0.4-4,1.2
				c-0.9,0.8-1.3,1.8-1.3,3.2c0,0.9,0.2,1.6,0.6,2.3c0.4,0.7,1,1.2,1.8,1.6C449.6,45.4,450.6,45.5,451.8,45.5z"/>
		</g>
	</g>
</g>
</svg>
