<?xml version="1.0" encoding="utf-8"?>
<!-- Generator: Adobe Illustrator 25.3.1, SVG Export Plug-In . SVG Version: 6.00 Build 0)  -->
<svg version="1.1" id="Layer_1" xmlns="http://www.w3.org/2000/svg" xmlns:xlink="http://www.w3.org/1999/xlink" x="0px" y="0px"
	 viewBox="0 0 679.5 82.7" style="enable-background:new 0 0 679.5 82.7;" xml:space="preserve">
<style type="text/css">
	.st0{fill:none;}
	.st1{fill:#87CFC5;}
	.st2{fill:#228374;}
	.st3{fill:#291E3B;}
</style>
<rect x="0" class="st0" width="679.5" height="82.7"/>
<g>
	<g>
		<path class="st1" d="M22.2,59.6c11.7,12.8,31.5,13.7,44.3,2c0.2-0.2,0.5-0.4,0.7-0.7c0.1-0.1,0.2-0.2,0.3-0.3
			c0.3-0.3,0.4-0.7,0.4-1.1c0-0.5-0.2-0.9-0.5-1.3C61,51.8,31.8,23,25.4,16.6c-0.3-0.3-0.8-0.5-1.3-0.5c-0.5,0-0.9,0.2-1.2,0.5
			c0,0-0.1,0-0.1,0.1C11.4,28.5,11,47.3,22.2,59.6z"/>
		<path class="st2" d="M42.6,18c0,0.5,0.2,0.9,0.5,1.3c4.2,4.3,17.3,17.2,21.6,21.5c0,0,0,0,0,0c0,0,0,0,0.1,0.1
			c0.3,0.3,0.7,0.5,1.2,0.5c0.4,0,0.8-0.1,1.1-0.4c0.1-0.1,0.2-0.2,0.3-0.3c0.1-0.1,0.1-0.2,0.2-0.2c5.2-6.7,4.7-16.4-1.5-22.6
			c-6.2-6.2-15.9-6.7-22.7-1.4C42.9,16.9,42.6,17.4,42.6,18z"/>
	</g>
	<g>
		<g>
			<path class="st3" d="M105.4,26.5v12.2h12V26.5h6.5v30.9h-6.5V44.3h-12v13.1h-6.5V26.5H105.4z"/>
			<path class="st3" d="M128.5,42c0-9.2,6.2-15.9,14.4-15.9c6.4,0,11.7,4.2,13.3,10.5l-6.2,1.6c-0.9-3.9-3.6-6.5-7.2-6.5
				c-4.6,0-7.7,4.4-7.7,10.3c0,6,3.3,10.3,7.8,10.3c3.6,0,6.3-2.6,7.2-6.5l6.1,1.5c-1.7,6.4-7.1,10.5-13.5,10.5
				C134.5,57.9,128.5,51.2,128.5,42z"/>
			<path class="st3" d="M183.4,36c0,5.7-4.3,9.5-10.3,9.5h-5.8v11.9h-6.5V26.5H173C179.1,26.5,183.4,30.1,183.4,36z M176.8,36.1
				c0-2.7-1.9-4.1-4.5-4.1h-5v8.3h5C175.1,40.2,176.8,38.8,176.8,36.1z"/>
		</g>
		<g>
			<path class="st3" d="M194.7,57V28.2h22.2v3.4h-18.2v8.9h16.3V44h-16.3v9.6h18.4V57H194.7z"/>
			<path class="st3" d="M220.1,57l7.9-11.3l-7.6-10.8h4.5l5.4,7.9h0.2l5.4-7.9h4.2l-7.6,10.7l8,11.4h-4.4l-5.8-8.5h-0.2l-5.8,8.5
				H220.1z"/>
			<path class="st3" d="M244,64.3V34.9h2.9l0.4,3.1h0.3c0.8-1.2,1.7-2.1,2.9-2.8c1.2-0.6,2.5-0.9,4-0.9c1.8,0,3.4,0.4,4.7,1.2
				c1.3,0.8,2.3,2.1,3,3.8c0.7,1.7,1,4,1,6.7c0,2.6-0.4,4.7-1.1,6.4c-0.7,1.7-1.7,2.9-3,3.8s-2.8,1.2-4.5,1.2c-1,0-1.8-0.1-2.7-0.3
				s-1.6-0.6-2.3-1.1c-0.7-0.5-1.3-1.1-1.8-1.9h-0.3v10H244z M253.5,54.3c1.4,0,2.5-0.3,3.4-0.8c0.9-0.5,1.5-1.4,1.9-2.6
				c0.4-1.2,0.6-2.7,0.6-4.5v-0.9c0-1.9-0.2-3.5-0.7-4.6c-0.4-1.2-1.1-2-2-2.5c-0.9-0.5-1.9-0.8-3.2-0.8c-1.4,0-2.5,0.3-3.4,0.9
				c-0.9,0.6-1.5,1.5-1.9,2.7c-0.4,1.2-0.6,2.7-0.6,4.4v0.6c0,1.5,0.1,2.8,0.4,3.8c0.3,1,0.7,1.8,1.3,2.5c0.5,0.6,1.2,1,1.9,1.3
				C252,54.2,252.7,54.3,253.5,54.3z"/>
			<path class="st3" d="M276.6,57.5c-2.2,0-4-0.4-5.5-1.2c-1.5-0.8-2.6-2.1-3.4-3.8c-0.8-1.7-1.2-3.9-1.2-6.5c0-2.7,0.4-4.8,1.2-6.5
				c0.8-1.7,1.9-3,3.4-3.8c1.5-0.8,3.4-1.2,5.7-1.2c2.1,0,3.8,0.4,5.2,1.2c1.4,0.8,2.5,2,3.2,3.6c0.7,1.6,1.1,3.6,1.1,5.9v1.8h-15.9
				c0.1,1.8,0.3,3.2,0.8,4.3c0.5,1.1,1.2,2,2.1,2.5c0.9,0.5,2.1,0.8,3.5,0.8c1,0,1.8-0.1,2.5-0.4c0.7-0.2,1.3-0.6,1.8-1
				c0.5-0.4,0.9-1,1.1-1.6c0.3-0.6,0.4-1.3,0.4-2h3.6c0,1.2-0.3,2.3-0.7,3.3s-1,1.8-1.8,2.5c-0.8,0.7-1.8,1.2-3,1.6
				S278.1,57.5,276.6,57.5z M270.4,44.1h12c0-1.2-0.1-2.3-0.4-3.1s-0.7-1.5-1.2-2.1c-0.5-0.5-1.1-0.9-1.8-1.2
				c-0.7-0.2-1.5-0.4-2.3-0.4c-1.3,0-2.4,0.2-3.3,0.7c-0.9,0.5-1.6,1.2-2.1,2.2C270.9,41.3,270.6,42.6,270.4,44.1z"/>
			<path class="st3" d="M290.8,57V34.9h3l0.3,3.7h0.3c0.2-0.7,0.5-1.4,0.9-2c0.4-0.6,0.9-1.1,1.6-1.6c0.7-0.4,1.5-0.6,2.5-0.6
				c0.4,0,0.8,0,1.2,0.1c0.3,0.1,0.6,0.1,0.8,0.2v3.4H300c-1,0-1.8,0.2-2.5,0.5c-0.7,0.3-1.3,0.8-1.7,1.4c-0.4,0.6-0.8,1.3-1,2.1
				c-0.2,0.8-0.3,1.7-0.3,2.6V57H290.8z"/>
			<path class="st3" d="M304.8,30.8v-4.1h3.7v4.1H304.8z M304.8,57V34.9h3.7V57H304.8z"/>
			<path class="st3" d="M323,57.5c-2.2,0-4-0.4-5.5-1.2c-1.5-0.8-2.6-2.1-3.4-3.8c-0.8-1.7-1.2-3.9-1.2-6.5c0-2.7,0.4-4.8,1.2-6.5
				c0.8-1.7,1.9-3,3.4-3.8c1.5-0.8,3.4-1.2,5.7-1.2c2.1,0,3.8,0.4,5.2,1.2c1.4,0.8,2.5,2,3.2,3.6c0.7,1.6,1.1,3.6,1.1,5.9v1.8h-15.9
				c0.1,1.8,0.3,3.2,0.8,4.3c0.5,1.1,1.2,2,2.1,2.5c0.9,0.5,2.1,0.8,3.5,0.8c1,0,1.8-0.1,2.5-0.4c0.7-0.2,1.3-0.6,1.8-1
				c0.5-0.4,0.9-1,1.1-1.6c0.3-0.6,0.4-1.3,0.4-2h3.6c0,1.2-0.3,2.3-0.7,3.3s-1,1.8-1.8,2.5c-0.8,0.7-1.8,1.2-3,1.6
				S324.5,57.5,323,57.5z M316.9,44.1h12c0-1.2-0.1-2.3-0.4-3.1s-0.7-1.5-1.2-2.1c-0.5-0.5-1.1-0.9-1.8-1.2
				c-0.7-0.2-1.5-0.4-2.3-0.4c-1.3,0-2.4,0.2-3.3,0.7c-0.9,0.5-1.6,1.2-2.1,2.2C317.3,41.3,317,42.6,316.9,44.1z"/>
			<path class="st3" d="M337.2,57V34.9h3l0.3,3.3h0.3c0.6-0.9,1.3-1.6,2-2.2c0.7-0.6,1.6-1,2.5-1.2c0.9-0.3,1.9-0.4,2.9-0.4
				c1.4,0,2.6,0.2,3.7,0.7c1,0.5,1.9,1.2,2.5,2.3c0.6,1.1,0.9,2.5,0.9,4.3V57h-3.7V42.3c0-0.9-0.1-1.7-0.4-2.3c-0.2-0.6-0.6-1-1-1.4
				c-0.4-0.3-0.9-0.6-1.5-0.7c-0.6-0.1-1.2-0.2-1.9-0.2c-1,0-2,0.3-2.9,0.8c-0.9,0.5-1.7,1.2-2.2,2.2s-0.8,2.1-0.8,3.4v13H337.2z"/>
			<path class="st3" d="M369.3,57.5c-2.1,0-3.9-0.4-5.4-1.2c-1.4-0.8-2.5-2.1-3.3-3.8c-0.7-1.7-1.1-3.9-1.1-6.5
				c0-2.6,0.4-4.8,1.1-6.5c0.7-1.7,1.8-3,3.3-3.8c1.5-0.8,3.3-1.3,5.4-1.3c1.5,0,2.8,0.2,3.9,0.6c1.1,0.4,2,1,2.8,1.7
				c0.7,0.8,1.3,1.7,1.6,2.7c0.3,1.1,0.5,2.3,0.5,3.7h-3.7c0-1.3-0.2-2.3-0.5-3.2c-0.4-0.8-0.9-1.4-1.7-1.8c-0.8-0.4-1.8-0.6-3-0.6
				s-2.3,0.3-3.2,0.8c-0.9,0.5-1.6,1.4-2.1,2.6c-0.5,1.2-0.7,2.7-0.7,4.7v0.9c0,1.8,0.2,3.3,0.7,4.5s1.1,2.1,2,2.6
				c0.9,0.6,2,0.8,3.3,0.8c1.3,0,2.3-0.2,3-0.7c0.8-0.4,1.3-1.1,1.7-1.9c0.3-0.8,0.5-1.8,0.5-3h3.6c0,1.2-0.2,2.4-0.5,3.4
				c-0.4,1.1-0.9,2-1.6,2.8c-0.7,0.8-1.7,1.4-2.8,1.8C372.2,57.3,370.8,57.5,369.3,57.5z"/>
			<path class="st3" d="M391.5,57.5c-2.2,0-4-0.4-5.5-1.2c-1.5-0.8-2.6-2.1-3.4-3.8c-0.8-1.7-1.2-3.9-1.2-6.5c0-2.7,0.4-4.8,1.2-6.5
				c0.8-1.7,1.9-3,3.4-3.8c1.5-0.8,3.4-1.2,5.7-1.2c2.1,0,3.8,0.4,5.2,1.2c1.4,0.8,2.5,2,3.2,3.6c0.7,1.6,1.1,3.6,1.1,5.9v1.8h-15.9
				c0.1,1.8,0.3,3.2,0.8,4.3c0.5,1.1,1.2,2,2.1,2.5c0.9,0.5,2.1,0.8,3.5,0.8c1,0,1.8-0.1,2.5-0.4c0.7-0.2,1.3-0.6,1.8-1
				c0.5-0.4,0.9-1,1.1-1.6c0.3-0.6,0.4-1.3,0.4-2h3.6c0,1.2-0.3,2.3-0.7,3.3s-1,1.8-1.8,2.5c-0.8,0.7-1.8,1.2-3,1.6
				S393,57.5,391.5,57.5z M385.3,44.1h12c0-1.2-0.1-2.3-0.4-3.1s-0.7-1.5-1.2-2.1c-0.5-0.5-1.1-0.9-1.8-1.2
				c-0.7-0.2-1.5-0.4-2.3-0.4c-1.3,0-2.4,0.2-3.3,0.7c-0.9,0.5-1.6,1.2-2.1,2.2C385.7,41.3,385.4,42.6,385.3,44.1z"/>
			<path class="st3" d="M415.2,57V28.2h6.2l6.6,18.7c0.2,0.5,0.3,1.1,0.5,1.7c0.2,0.6,0.3,1.2,0.5,1.7c0.2,0.5,0.3,1,0.4,1.4h0.3
				c0.1-0.4,0.2-0.9,0.3-1.4c0.1-0.5,0.3-1.1,0.5-1.7s0.3-1.1,0.5-1.6l6.6-18.7h6.1V57h-4V40.2c0-0.9,0-1.8,0-2.8s0.1-2,0.1-2.8
				c0-0.9,0-1.5,0-1.8h-0.3c-0.1,0.4-0.2,0.9-0.4,1.5c-0.2,0.7-0.4,1.3-0.6,2.1c-0.2,0.7-0.4,1.4-0.6,1.9L431,57h-3.4l-6.8-18.9
				c-0.2-0.5-0.3-1-0.5-1.7c-0.2-0.6-0.4-1.3-0.5-2c-0.2-0.7-0.4-1.3-0.5-1.9h-0.3c0,0.6,0,1.4,0.1,2.3c0,0.9,0,1.8,0,2.7
				c0,0.9,0,1.7,0,2.5V57H415.2z"/>
			<path class="st3" d="M455.6,57.5c-0.8,0-1.6-0.1-2.4-0.3c-0.8-0.2-1.6-0.5-2.3-1c-0.7-0.4-1.3-1.1-1.7-1.9s-0.6-1.8-0.6-3
				c0-1.5,0.4-2.8,1.1-3.7c0.7-1,1.7-1.7,3-2.3c1.3-0.5,2.8-0.9,4.6-1.1s3.7-0.3,5.8-0.3v-2.5c0-0.8-0.1-1.5-0.4-2.1
				c-0.3-0.6-0.8-1-1.5-1.4c-0.7-0.3-1.7-0.5-3-0.5c-1.3,0-2.3,0.2-3,0.5c-0.7,0.3-1.3,0.7-1.6,1.2s-0.4,1.1-0.4,1.7v0.6h-3.6
				c0-0.1,0-0.3,0-0.4c0-0.1,0-0.3,0-0.5c0-1.3,0.4-2.5,1.1-3.4s1.8-1.6,3.1-2.1c1.3-0.5,2.9-0.7,4.6-0.7c1.8,0,3.4,0.3,4.6,0.8
				c1.2,0.5,2.2,1.3,2.8,2.3c0.6,1,0.9,2.2,0.9,3.5v12c0,0.5,0.1,0.9,0.4,1.1s0.6,0.3,0.9,0.3h1.6v2.4c-0.4,0.2-0.8,0.3-1.3,0.4
				c-0.5,0.1-1,0.2-1.6,0.2c-0.7,0-1.3-0.1-1.8-0.4c-0.5-0.3-0.8-0.7-1.1-1.2c-0.3-0.5-0.4-1.1-0.5-1.7h-0.3
				c-0.5,0.7-1.1,1.3-1.9,1.8c-0.8,0.5-1.6,0.9-2.6,1.2S456.7,57.5,455.6,57.5z M456.5,54.4c0.9,0,1.7-0.1,2.5-0.4
				c0.8-0.3,1.5-0.7,2.1-1.2c0.6-0.5,1.1-1.1,1.5-1.9c0.4-0.7,0.5-1.5,0.5-2.4v-1.8c-2.3,0-4.2,0.1-5.8,0.4s-2.8,0.7-3.7,1.3
				c-0.9,0.6-1.3,1.6-1.3,2.7c0,0.8,0.2,1.4,0.5,1.8c0.3,0.5,0.8,0.8,1.4,1.1C455,54.3,455.7,54.4,456.5,54.4z"/>
			<path class="st3" d="M472.9,57V34.9h3l0.3,3.3h0.3c0.6-0.9,1.3-1.6,2-2.2c0.7-0.6,1.6-1,2.5-1.2c0.9-0.3,1.9-0.4,2.9-0.4
				c1.4,0,2.6,0.2,3.7,0.7c1,0.5,1.9,1.2,2.5,2.3c0.6,1.1,0.9,2.5,0.9,4.3V57h-3.7V42.3c0-0.9-0.1-1.7-0.4-2.3c-0.2-0.6-0.6-1-1-1.4
				c-0.4-0.3-0.9-0.6-1.5-0.7c-0.6-0.1-1.2-0.2-1.9-0.2c-1,0-2,0.3-2.9,0.8c-0.9,0.5-1.7,1.2-2.2,2.2s-0.8,2.1-0.8,3.4v13H472.9z"/>
			<path class="st3" d="M502.1,57.5c-0.8,0-1.6-0.1-2.4-0.3c-0.8-0.2-1.6-0.5-2.3-1c-0.7-0.4-1.3-1.1-1.7-1.9s-0.6-1.8-0.6-3
				c0-1.5,0.4-2.8,1.1-3.7c0.7-1,1.7-1.7,3-2.3c1.3-0.5,2.8-0.9,4.6-1.1s3.7-0.3,5.8-0.3v-2.5c0-0.8-0.1-1.5-0.4-2.1
				c-0.3-0.6-0.8-1-1.5-1.4c-0.7-0.3-1.7-0.5-3-0.5c-1.3,0-2.3,0.2-3,0.5c-0.7,0.3-1.3,0.7-1.6,1.2s-0.4,1.1-0.4,1.7v0.6h-3.6
				c0-0.1,0-0.3,0-0.4c0-0.1,0-0.3,0-0.5c0-1.3,0.4-2.5,1.1-3.4s1.8-1.6,3.1-2.1c1.3-0.5,2.9-0.7,4.6-0.7c1.8,0,3.4,0.3,4.6,0.8
				c1.2,0.5,2.2,1.3,2.8,2.3c0.6,1,0.9,2.2,0.9,3.5v12c0,0.5,0.1,0.9,0.4,1.1s0.6,0.3,0.9,0.3h1.6v2.4c-0.4,0.2-0.8,0.3-1.3,0.4
				c-0.5,0.1-1,0.2-1.6,0.2c-0.7,0-1.3-0.1-1.8-0.4c-0.5-0.3-0.8-0.7-1.1-1.2c-0.3-0.5-0.4-1.1-0.5-1.7h-0.3
				c-0.5,0.7-1.1,1.3-1.9,1.8c-0.8,0.5-1.6,0.9-2.6,1.2S503.2,57.5,502.1,57.5z M503,54.4c0.9,0,1.7-0.1,2.5-0.4
				c0.8-0.3,1.5-0.7,2.1-1.2c0.6-0.5,1.1-1.1,1.5-1.9c0.4-0.7,0.5-1.5,0.5-2.4v-1.8c-2.3,0-4.2,0.1-5.8,0.4s-2.8,0.7-3.7,1.3
				c-0.9,0.6-1.3,1.6-1.3,2.7c0,0.8,0.2,1.4,0.5,1.8c0.3,0.5,0.8,0.8,1.4,1.1C501.5,54.3,502.2,54.4,503,54.4z"/>
			<path class="st3" d="M523.2,64.7c-1.1,0-2-0.2-2.9-0.7c-0.9-0.4-1.6-1.1-2.1-1.9c-0.5-0.8-0.8-1.8-0.8-2.9c0-1.2,0.3-2.3,1-3.1
				c0.7-0.8,1.5-1.4,2.5-1.8c-0.7-0.3-1.2-0.8-1.6-1.4c-0.4-0.6-0.6-1.3-0.6-2c0-1,0.4-1.8,1.1-2.5c0.7-0.7,1.6-1.1,2.6-1.3
				c-1-0.6-1.7-1.4-2.2-2.4s-0.8-2-0.8-3.2c0-1.4,0.3-2.6,1-3.7c0.7-1.1,1.7-1.9,3-2.5c1.4-0.6,3-0.9,5-0.9c0.9,0,1.7,0.1,2.5,0.2
				c0.8,0.1,1.5,0.3,2.1,0.6c1-0.4,1.7-1,2.2-1.7c0.5-0.7,0.8-1.4,0.9-2.1h3.7c0,0.8-0.2,1.6-0.6,2.4c-0.4,0.7-0.9,1.4-1.5,1.8
				c-0.6,0.5-1.4,0.8-2.4,1c0.7,0.7,1.2,1.4,1.6,2.3c0.4,0.8,0.5,1.8,0.5,2.7c0,1.4-0.3,2.6-1,3.7c-0.7,1.1-1.6,1.9-3,2.5
				c-1.3,0.6-3,0.9-5,0.9h-3.4c-0.8,0-1.4,0.1-1.8,0.4c-0.5,0.3-0.7,0.8-0.7,1.4c0,0.6,0.2,1,0.7,1.4c0.5,0.3,1.1,0.5,1.8,0.5h9
				c1.6,0,3,0.5,4,1.6c1,1.1,1.6,2.5,1.6,4.1c0,1.2-0.3,2.3-0.9,3.3c-0.6,1-1.4,1.7-2.5,2.3c-1.1,0.6-2.3,0.9-3.8,0.9H523.2z
				 M524.2,61.9h7.9c0.6,0,1.2-0.1,1.8-0.4c0.5-0.3,1-0.6,1.3-1.1c0.3-0.5,0.5-1,0.5-1.6c0-1-0.3-1.7-0.8-2.3
				c-0.6-0.6-1.3-0.8-2.1-0.8h-8.5c-0.9,0-1.7,0.3-2.3,0.9c-0.6,0.6-0.9,1.3-0.9,2.2c0,0.9,0.3,1.7,0.9,2.2
				C522.6,61.6,523.4,61.9,524.2,61.9z M528.2,46c1.8,0,3.1-0.4,4-1.2c0.9-0.8,1.3-1.9,1.3-3.2c0-1.3-0.4-2.4-1.3-3.2
				c-0.9-0.8-2.2-1.2-4-1.2s-3.1,0.4-4,1.2c-0.9,0.8-1.3,1.8-1.3,3.2c0,0.9,0.2,1.6,0.6,2.3c0.4,0.7,1,1.2,1.8,1.6
				C526,45.8,527,46,528.2,46z"/>
			<path class="st3" d="M551.6,57.5c-2.2,0-4-0.4-5.5-1.2c-1.5-0.8-2.6-2.1-3.4-3.8c-0.8-1.7-1.2-3.9-1.2-6.5c0-2.7,0.4-4.8,1.2-6.5
				c0.8-1.7,1.9-3,3.4-3.8c1.5-0.8,3.4-1.2,5.7-1.2c2.1,0,3.8,0.4,5.2,1.2c1.4,0.8,2.5,2,3.2,3.6c0.7,1.6,1.1,3.6,1.1,5.9v1.8h-15.9
				c0.1,1.8,0.3,3.2,0.8,4.3c0.5,1.1,1.2,2,2.1,2.5c0.9,0.5,2.1,0.8,3.5,0.8c1,0,1.8-0.1,2.5-0.4c0.7-0.2,1.3-0.6,1.8-1
				c0.5-0.4,0.9-1,1.1-1.6c0.3-0.6,0.4-1.3,0.4-2h3.6c0,1.2-0.3,2.3-0.7,3.3s-1,1.8-1.8,2.5c-0.8,0.7-1.8,1.2-3,1.6
				S553.1,57.5,551.6,57.5z M545.5,44.1h12c0-1.2-0.1-2.3-0.4-3.1s-0.7-1.5-1.2-2.1c-0.5-0.5-1.1-0.9-1.8-1.2
				c-0.7-0.2-1.5-0.4-2.3-0.4c-1.3,0-2.4,0.2-3.3,0.7c-0.9,0.5-1.6,1.2-2.1,2.2C545.9,41.3,545.6,42.6,545.5,44.1z"/>
			<path class="st3" d="M565.8,57V34.9h3l0.3,3.3h0.3c0.6-0.9,1.2-1.6,1.9-2.2c0.7-0.6,1.5-1,2.3-1.2c0.8-0.3,1.8-0.4,2.7-0.4
				c1.4,0,2.7,0.3,3.7,0.9c1,0.6,1.8,1.6,2.3,3h0.3c0.5-0.9,1.1-1.6,1.8-2.2c0.7-0.5,1.5-1,2.4-1.2c0.9-0.3,1.8-0.4,2.8-0.4
				c1.3,0,2.5,0.2,3.5,0.7s1.8,1.2,2.4,2.3c0.6,1,0.9,2.5,0.9,4.2V57h-3.7V42.2c0-0.9-0.1-1.6-0.3-2.2s-0.5-1-0.9-1.4
				c-0.4-0.3-0.8-0.6-1.4-0.7c-0.5-0.1-1.1-0.2-1.7-0.2c-1,0-1.9,0.3-2.7,0.8c-0.8,0.5-1.5,1.2-2,2.2s-0.8,2.1-0.8,3.4v13h-3.7V42.2
				c0-0.9-0.1-1.6-0.3-2.2c-0.2-0.6-0.5-1-0.9-1.4c-0.4-0.3-0.8-0.6-1.3-0.7c-0.5-0.1-1.1-0.2-1.6-0.2c-1,0-1.9,0.3-2.8,0.8
				c-0.9,0.5-1.5,1.2-2,2.2s-0.8,2.1-0.8,3.4v13H565.8z"/>
			<path class="st3" d="M610.8,57.5c-2.2,0-4-0.4-5.5-1.2c-1.5-0.8-2.6-2.1-3.4-3.8c-0.8-1.7-1.2-3.9-1.2-6.5c0-2.7,0.4-4.8,1.2-6.5
				c0.8-1.7,1.9-3,3.4-3.8c1.5-0.8,3.4-1.2,5.7-1.2c2.1,0,3.8,0.4,5.2,1.2c1.4,0.8,2.5,2,3.2,3.6c0.7,1.6,1.1,3.6,1.1,5.9v1.8h-15.9
				c0.1,1.8,0.3,3.2,0.8,4.3c0.5,1.1,1.2,2,2.1,2.5c0.9,0.5,2.1,0.8,3.5,0.8c1,0,1.8-0.1,2.5-0.4c0.7-0.2,1.3-0.6,1.8-1
				c0.5-0.4,0.9-1,1.1-1.6c0.3-0.6,0.4-1.3,0.4-2h3.6c0,1.2-0.3,2.3-0.7,3.3s-1,1.8-1.8,2.5c-0.8,0.7-1.8,1.2-3,1.6
				S612.3,57.5,610.8,57.5z M604.6,44.1h12c0-1.2-0.1-2.3-0.4-3.1s-0.7-1.5-1.2-2.1c-0.5-0.5-1.1-0.9-1.8-1.2
				c-0.7-0.2-1.5-0.4-2.3-0.4c-1.3,0-2.4,0.2-3.3,0.7c-0.9,0.5-1.6,1.2-2.1,2.2C605,41.3,604.7,42.6,604.6,44.1z"/>
			<path class="st3" d="M625,57V34.9h3l0.3,3.3h0.3c0.6-0.9,1.3-1.6,2-2.2c0.7-0.6,1.6-1,2.5-1.2c0.9-0.3,1.9-0.4,2.9-0.4
				c1.4,0,2.6,0.2,3.7,0.7c1,0.5,1.9,1.2,2.5,2.3c0.6,1.1,0.9,2.5,0.9,4.3V57h-3.7V42.3c0-0.9-0.1-1.7-0.4-2.3c-0.2-0.6-0.6-1-1-1.4
				c-0.4-0.3-0.9-0.6-1.5-0.7c-0.6-0.1-1.2-0.2-1.9-0.2c-1,0-2,0.3-2.9,0.8c-0.9,0.5-1.7,1.2-2.2,2.2s-0.8,2.1-0.8,3.4v13H625z"/>
			<path class="st3" d="M653.8,57.5c-1.1,0-2-0.2-2.7-0.7c-0.6-0.4-1.1-1-1.4-1.7c-0.3-0.7-0.4-1.5-0.4-2.3V38.1h-2.9v-3.1h2.9
				l0.7-6.2h2.9v6.2h4.2v3.1H653v14.3c0,0.7,0.1,1.2,0.4,1.6c0.3,0.4,0.7,0.5,1.4,0.5h2.4v2.4c-0.3,0.1-0.6,0.3-1,0.3
				c-0.4,0.1-0.8,0.2-1.2,0.2C654.5,57.5,654.1,57.5,653.8,57.5z"/>
		</g>
	</g>
</g>
</svg>
