<?xml version="1.0" encoding="utf-8"?>
<!-- Generator: Adobe Illustrator 25.3.1, SVG Export Plug-In . SVG Version: 6.00 Build 0)  -->
<svg version="1.1" id="Layer_1" xmlns="http://www.w3.org/2000/svg" xmlns:xlink="http://www.w3.org/1999/xlink" x="0px" y="0px"
	 viewBox="0 0 359.5 82.7" style="enable-background:new 0 0 359.5 82.7;" xml:space="preserve">
<style type="text/css">
	.st0{fill:none;}
	.st1{fill:#AD5D49;}
	.st2{fill:#EA8871;}
	.st3{fill:#291E3B;}
</style>
<rect class="st0" width="359.5" height="82.7"/>
<g>
	<g>
		<path class="st1" d="M42.6,67.2V42.9c0-0.6-0.2-1.2-0.6-1.5c-0.4-0.4-0.9-0.6-1.5-0.6H17.7c-1.2,0-2.2,1-2.2,2.2
			c0,0.4,0.1,0.9,0.4,1.2c0,0,0,0,0,0c0.1,0.1,0.1,0.2,0.2,0.2c0,0,0,0,0,0c0,0,0,0,0,0c0,0,0.1,0.1,0.1,0.1l22.5,24.2c0,0,0,0,0,0
			c0,0,0,0,0,0c0,0,0,0,0,0.1c0,0,0,0,0.1,0c0,0,0.1,0.1,0.1,0.1c0.4,0.3,0.8,0.5,1.4,0.5c0.4,0,0.9-0.1,1.2-0.4
			C42.2,68.6,42.6,68,42.6,67.2z"/>
		<path class="st2" d="M70.8,15.1v48.5c0,0.6-0.3,1.2-0.8,1.5c-0.3,0.2-0.6,0.3-1,0.3c-0.4,0-0.8-0.1-1.1-0.4l-0.4-0.4c0,0,0,0,0,0
			l-15-16.1V30H35.3L22.5,16.3c0,0,0,0,0,0c-0.1-0.1-0.1-0.1-0.2-0.2c0,0,0,0,0,0c-0.2-0.3-0.3-0.6-0.3-1c0-1,0.8-1.8,1.8-1.8H69
			c0.5,0,0.9,0.2,1.3,0.5C70.6,14.1,70.8,14.6,70.8,15.1z"/>
	</g>
	<g>
		<g>
			<path class="st3" d="M105.4,25.3v12.2h12V25.3h6.5v30.9h-6.5V43h-12v13.1h-6.5V25.3H105.4z"/>
			<path class="st3" d="M128.5,40.7c0-9.2,6.2-15.9,14.4-15.9c6.4,0,11.7,4.2,13.3,10.5l-6.2,1.6c-0.9-3.9-3.6-6.5-7.2-6.5
				c-4.6,0-7.7,4.4-7.7,10.3c0,6,3.3,10.3,7.8,10.3c3.6,0,6.3-2.6,7.2-6.5l6.1,1.5c-1.7,6.4-7.1,10.5-13.5,10.5
				C134.5,56.6,128.5,49.9,128.5,40.7z"/>
			<path class="st3" d="M183.4,34.8c0,5.7-4.3,9.5-10.3,9.5h-5.8v11.9h-6.5V25.3H173C179.1,25.3,183.4,28.8,183.4,34.8z M176.8,34.8
				c0-2.7-1.9-4.1-4.5-4.1h-5v8.3h5C175.1,38.9,176.8,37.5,176.8,34.8z"/>
		</g>
		<g>
			<path class="st3" d="M201.8,55.8V30.4h-9.9v-3.5h23.8v3.5h-10v25.3H201.8z"/>
			<path class="st3" d="M216.5,55.8V33.7h3l0.3,3.7h0.3c0.2-0.7,0.5-1.4,0.9-2c0.4-0.6,0.9-1.1,1.6-1.6c0.7-0.4,1.5-0.6,2.5-0.6
				c0.4,0,0.8,0,1.2,0.1c0.3,0.1,0.6,0.1,0.8,0.2v3.4h-1.4c-1,0-1.8,0.2-2.5,0.5c-0.7,0.3-1.3,0.8-1.7,1.4c-0.4,0.6-0.8,1.3-1,2.1
				c-0.2,0.8-0.3,1.7-0.3,2.6v12.3H216.5z"/>
			<path class="st3" d="M235.6,56.3c-0.8,0-1.6-0.1-2.4-0.3c-0.8-0.2-1.6-0.5-2.3-1c-0.7-0.4-1.3-1.1-1.7-1.9s-0.6-1.8-0.6-3
				c0-1.5,0.4-2.8,1.1-3.7c0.7-1,1.7-1.7,3-2.3c1.3-0.5,2.8-0.9,4.6-1.1s3.7-0.3,5.8-0.3v-2.5c0-0.8-0.1-1.5-0.4-2.1
				c-0.3-0.6-0.8-1-1.5-1.4c-0.7-0.3-1.7-0.5-3-0.5c-1.3,0-2.3,0.2-3,0.5c-0.7,0.3-1.3,0.7-1.6,1.2s-0.4,1.1-0.4,1.7v0.6h-3.6
				c0-0.1,0-0.3,0-0.4c0-0.1,0-0.3,0-0.5c0-1.3,0.4-2.5,1.1-3.4s1.8-1.6,3.1-2.1c1.3-0.5,2.9-0.7,4.6-0.7c1.8,0,3.4,0.3,4.6,0.8
				c1.2,0.5,2.2,1.3,2.8,2.3c0.6,1,0.9,2.2,0.9,3.5v12c0,0.5,0.1,0.9,0.4,1.1s0.6,0.3,0.9,0.3h1.6v2.4c-0.4,0.2-0.8,0.3-1.3,0.4
				c-0.5,0.1-1,0.2-1.6,0.2c-0.7,0-1.3-0.1-1.8-0.4c-0.5-0.3-0.8-0.7-1.1-1.2c-0.3-0.5-0.4-1.1-0.5-1.7h-0.3
				c-0.5,0.7-1.1,1.3-1.9,1.8c-0.8,0.5-1.6,0.9-2.6,1.2S236.7,56.3,235.6,56.3z M236.5,53.2c0.9,0,1.7-0.1,2.5-0.4
				c0.8-0.3,1.5-0.7,2.1-1.2c0.6-0.5,1.1-1.1,1.5-1.9c0.4-0.7,0.5-1.5,0.5-2.4v-1.8c-2.3,0-4.2,0.1-5.8,0.4s-2.8,0.7-3.7,1.3
				c-0.9,0.6-1.3,1.6-1.3,2.7c0,0.8,0.2,1.4,0.5,1.8c0.3,0.5,0.8,0.8,1.4,1.1C235,53,235.7,53.2,236.5,53.2z"/>
			<path class="st3" d="M252.9,29.5v-4.1h3.7v4.1H252.9z M252.9,55.8V33.7h3.7v22.1H252.9z"/>
			<path class="st3" d="M262.4,55.8V33.7h3l0.3,3.3h0.3c0.6-0.9,1.3-1.6,2-2.2c0.7-0.6,1.6-1,2.5-1.2c0.9-0.3,1.9-0.4,2.9-0.4
				c1.4,0,2.6,0.2,3.7,0.7c1,0.5,1.9,1.2,2.5,2.3c0.6,1.1,0.9,2.5,0.9,4.3v15.2h-3.7V41c0-0.9-0.1-1.7-0.4-2.3c-0.2-0.6-0.6-1-1-1.4
				c-0.4-0.3-0.9-0.6-1.5-0.7c-0.6-0.1-1.2-0.2-1.9-0.2c-1,0-2,0.3-2.9,0.8c-0.9,0.5-1.7,1.2-2.2,2.2s-0.8,2.1-0.8,3.4v13H262.4z"/>
			<path class="st3" d="M286,29.5v-4.1h3.7v4.1H286z M286,55.8V33.7h3.7v22.1H286z"/>
			<path class="st3" d="M295.5,55.8V33.7h3l0.3,3.3h0.3c0.6-0.9,1.3-1.6,2-2.2c0.7-0.6,1.6-1,2.5-1.2c0.9-0.3,1.9-0.4,2.9-0.4
				c1.4,0,2.6,0.2,3.7,0.7c1,0.5,1.9,1.2,2.5,2.3c0.6,1.1,0.9,2.5,0.9,4.3v15.2h-3.7V41c0-0.9-0.1-1.7-0.4-2.3c-0.2-0.6-0.6-1-1-1.4
				c-0.4-0.3-0.9-0.6-1.5-0.7c-0.6-0.1-1.2-0.2-1.9-0.2c-1,0-2,0.3-2.9,0.8c-0.9,0.5-1.7,1.2-2.2,2.2s-0.8,2.1-0.8,3.4v13H295.5z"/>
			<path class="st3" d="M322.9,63.4c-1.1,0-2-0.2-2.9-0.7c-0.9-0.4-1.6-1.1-2.1-1.9c-0.5-0.8-0.8-1.8-0.8-2.9c0-1.2,0.3-2.3,1-3.1
				c0.7-0.8,1.5-1.4,2.5-1.8c-0.7-0.3-1.2-0.8-1.6-1.4c-0.4-0.6-0.6-1.3-0.6-2c0-1,0.4-1.8,1.1-2.5c0.7-0.7,1.6-1.1,2.6-1.3
				c-1-0.6-1.7-1.4-2.2-2.4s-0.8-2-0.8-3.2c0-1.4,0.3-2.6,1-3.7c0.7-1.1,1.7-1.9,3-2.5c1.4-0.6,3-0.9,5-0.9c0.9,0,1.7,0.1,2.5,0.2
				c0.8,0.1,1.5,0.3,2.1,0.6c1-0.4,1.7-1,2.2-1.7c0.5-0.7,0.8-1.4,0.9-2.1h3.7c0,0.8-0.2,1.6-0.6,2.4c-0.4,0.7-0.9,1.4-1.5,1.8
				c-0.6,0.5-1.4,0.8-2.4,1c0.7,0.7,1.2,1.4,1.6,2.3c0.4,0.8,0.5,1.8,0.5,2.7c0,1.4-0.3,2.6-1,3.7c-0.7,1.1-1.6,1.9-3,2.5
				c-1.3,0.6-3,0.9-5,0.9h-3.4c-0.8,0-1.4,0.1-1.8,0.4c-0.5,0.3-0.7,0.8-0.7,1.4c0,0.6,0.2,1,0.7,1.4c0.5,0.3,1.1,0.5,1.8,0.5h9
				c1.6,0,3,0.5,4,1.6c1,1.1,1.6,2.5,1.6,4.1c0,1.2-0.3,2.3-0.9,3.3c-0.6,1-1.4,1.7-2.5,2.3c-1.1,0.6-2.3,0.9-3.8,0.9H322.9z
				 M323.9,60.6h7.9c0.6,0,1.2-0.1,1.8-0.4c0.5-0.3,1-0.6,1.3-1.1c0.3-0.5,0.5-1,0.5-1.6c0-1-0.3-1.7-0.8-2.3
				c-0.6-0.6-1.3-0.8-2.1-0.8h-8.5c-0.9,0-1.7,0.3-2.3,0.9c-0.6,0.6-0.9,1.3-0.9,2.2c0,0.9,0.3,1.7,0.9,2.2
				C322.3,60.3,323,60.6,323.9,60.6z M327.9,44.7c1.8,0,3.1-0.4,4-1.2c0.9-0.8,1.3-1.9,1.3-3.2c0-1.3-0.4-2.4-1.3-3.2
				c-0.9-0.8-2.2-1.2-4-1.2s-3.1,0.4-4,1.2c-0.9,0.8-1.3,1.8-1.3,3.2c0,0.9,0.2,1.6,0.6,2.3c0.4,0.7,1,1.2,1.8,1.6
				C325.7,44.5,326.7,44.7,327.9,44.7z"/>
		</g>
	</g>
</g>
</svg>
