<?xml version="1.0" encoding="utf-8"?>
<!-- Generator: Adobe Illustrator 25.3.1, SVG Export Plug-In . SVG Version: 6.00 Build 0)  -->
<svg version="1.1" xmlns="http://www.w3.org/2000/svg" xmlns:xlink="http://www.w3.org/1999/xlink" x="0px" y="0px"
	 viewBox="0 0 84.7 84.7" style="enable-background:new 0 0 84.7 84.7;" xml:space="preserve">
<style type="text/css">
	.st0{fill:#86CEC4;}
	.st1{fill:#218375;}
</style>
<g id="Layer_1">
	<g>
		<path class="st0" d="M19.5,62.5c11.7,12.8,31.5,13.7,44.3,2c0.2-0.2,0.5-0.4,0.7-0.7c0.1-0.1,0.2-0.2,0.3-0.3
			c0.3-0.3,0.4-0.7,0.4-1.1c0-0.5-0.2-0.9-0.5-1.3c-6.4-6.4-35.6-35.2-41.9-41.6c-0.3-0.3-0.8-0.5-1.3-0.5c-0.5,0-0.9,0.2-1.2,0.5
			c0,0-0.1,0-0.1,0.1C8.7,31.3,8.3,50.2,19.5,62.5z"/>
		<path class="st1" d="M39.9,20.9c0,0.5,0.2,0.9,0.5,1.3c4.2,4.3,17.3,17.2,21.6,21.5c0,0,0,0,0,0c0,0,0,0,0.1,0.1
			c0.3,0.3,0.7,0.5,1.2,0.5c0.4,0,0.8-0.1,1.1-0.4c0.1-0.1,0.2-0.2,0.3-0.3c0.1-0.1,0.1-0.2,0.2-0.2c5.2-6.7,4.7-16.4-1.5-22.6
			c-6.2-6.2-15.9-6.7-22.7-1.4C40.2,19.8,39.9,20.3,39.9,20.9z"/>
	</g>
</g>
<g id="Layer_2">
</g>
</svg>
