<?xml version="1.0" encoding="utf-8"?>
<!-- Generator: Adobe Illustrator 25.3.1, SVG Export Plug-In . SVG Version: 6.00 Build 0)  -->
<svg version="1.1" xmlns="http://www.w3.org/2000/svg" xmlns:xlink="http://www.w3.org/1999/xlink" x="0px" y="0px"
	 viewBox="0 0 84.7 84.7" style="enable-background:new 0 0 84.7 84.7;" xml:space="preserve">
<style type="text/css">
	.st0{fill:#B2802C;}
	.st1{fill:#E4B137;}
</style>
<g id="Layer_1">
	<g>
		<path class="st0" d="M36.7,55.9v14.8H14.9c-0.8,0-1.4-0.6-1.4-1.4V55.9c0-6.4,5.2-11.6,11.6-11.6S36.7,49.5,36.7,55.9z"/>
		<path class="st1" d="M69.1,40.8v27.9c0,1.1-0.9,2-2,2H47.6V55.8c0-11.9-9.3-21.7-21-22.4c-0.1,0-0.3,0-0.4,0c-1-0.2-1.7-1-1.7-2
			c0-0.2,0-0.4,0.1-0.6c0,0,0,0,0,0c0.1-0.2,0.2-0.3,0.2-0.5c0,0,0,0,0,0c3.9-7.6,11.8-12.8,20.9-12.8
			C58.7,17.4,69.1,27.9,69.1,40.8z"/>
	</g>
</g>
<g id="Layer_2">
</g>
</svg>
