<?xml version="1.0" encoding="utf-8"?>
<!-- Generator: Adobe Illustrator 25.3.1, SVG Export Plug-In . SVG Version: 6.00 Build 0)  -->
<svg version="1.1" xmlns="http://www.w3.org/2000/svg" xmlns:xlink="http://www.w3.org/1999/xlink" x="0px" y="0px"
	 viewBox="0 0 84.7 84.7" style="enable-background:new 0 0 84.7 84.7;" xml:space="preserve">
<style type="text/css">
	.st0{fill:#AC5D49;}
	.st1{fill:#E98771;}
</style>
<g id="Layer_1">
	<g>
		<path class="st0" d="M39.9,70.2V45.8c0-0.6-0.2-1.2-0.6-1.5c-0.4-0.4-0.9-0.6-1.5-0.6H15c-1.2,0-2.2,1-2.2,2.2
			c0,0.4,0.1,0.9,0.4,1.2c0,0,0,0,0,0c0.1,0.1,0.1,0.2,0.2,0.2c0,0,0,0,0,0c0,0,0,0,0,0c0,0,0.1,0.1,0.1,0.1l22.5,24.2c0,0,0,0,0,0
			c0,0,0,0,0,0c0,0,0,0,0,0.1c0,0,0,0,0.1,0c0,0,0.1,0.1,0.1,0.1c0.4,0.3,0.8,0.5,1.4,0.5c0.4,0,0.9-0.1,1.2-0.4
			C39.5,71.6,39.9,71,39.9,70.2z"/>
		<path class="st1" d="M68.1,18.1v48.5c0,0.6-0.3,1.2-0.8,1.5c-0.3,0.2-0.6,0.3-1,0.3c-0.4,0-0.8-0.1-1.1-0.4l-0.4-0.4c0,0,0,0,0,0
			l-15-16.1V33H32.6L19.8,19.3c0,0,0,0,0,0c-0.1-0.1-0.1-0.1-0.2-0.2c0,0,0,0,0,0c-0.2-0.3-0.3-0.6-0.3-1c0-1,0.8-1.8,1.8-1.8h45.1
			c0.5,0,0.9,0.2,1.3,0.5C67.9,17.1,68.1,17.6,68.1,18.1z"/>
	</g>
</g>
<g id="Layer_2">
</g>
</svg>
