<?xml version="1.0" standalone="no"?>
<!DOCTYPE svg PUBLIC "-//W3C//DTD SVG 20010904//EN"
 "http://www.w3.org/TR/2001/REC-SVG-20010904/DTD/svg10.dtd">
<svg version="1.0" xmlns="http://www.w3.org/2000/svg"
 width="993.000000pt" height="418.000000pt" viewBox="0 0 993.000000 418.000000"
 preserveAspectRatio="xMidYMid meet">

<g transform="translate(0.000000,418.000000) scale(0.100000,-0.100000)"
fill="#000000" stroke="none">
<path d="M4320 4044 l0 -27 -123 7 c-112 7 -125 6 -147 -12 -22 -17 -49 -20
-225 -25 -110 -3 -226 -11 -258 -17 -154 -29 -242 -104 -286 -241 l-12 -37
-507 -5 c-279 -4 -536 -11 -571 -16 -121 -18 -177 -64 -222 -180 -15 -41 -18
-66 -13 -114 8 -85 -2 -97 -97 -108 -41 -5 -265 -6 -499 -2 -234 3 -451 3
-482 -1 -113 -14 -168 -88 -176 -232 -6 -106 14 -177 63 -224 l36 -35 212 -7
c285 -9 732 -13 947 -9 143 3 175 1 173 -10 -1 -8 -6 -38 -12 -68 -6 -29 -11
-99 -12 -155 0 -109 -10 -191 -25 -206 -16 -16 -332 -42 -467 -38 -163 4 -157
-2 -157 166 0 163 -9 183 -93 212 -104 35 -227 43 -532 37 -438 -10 -517 -35
-562 -182 -16 -52 -18 -93 -17 -316 1 -169 6 -264 13 -278 22 -39 62 -51 180
-51 115 0 184 16 195 46 3 8 9 71 12 140 5 90 11 127 22 136 9 8 68 14 167 16
142 4 154 3 163 -14 5 -11 12 -111 15 -224 6 -204 16 -270 50 -336 37 -72 152
-87 632 -82 l360 3 3 -86 c2 -73 0 -90 -17 -110 -18 -23 -26 -24 -183 -31 -89
-3 -323 -7 -518 -7 -390 -1 -384 0 -415 -62 -46 -88 -38 -253 14 -312 l28 -30
544 -5 c669 -6 1019 -3 1041 9 10 5 26 24 35 42 15 27 18 57 17 179 0 126 2
148 15 153 34 10 314 25 472 25 l166 0 7 -137 c19 -369 89 -465 359 -493 101
-11 2327 -14 2390 -4 l37 7 0 51 0 51 -150 -3 c-97 -2 -150 1 -150 7 0 21 42
31 132 32 51 0 144 4 205 8 93 6 118 11 142 29 17 12 38 22 48 22 10 0 29 7
41 16 21 14 22 22 22 160 0 140 1 144 21 144 27 0 48 27 49 62 0 14 11 39 24
55 12 15 26 35 29 43 3 8 6 0 6 -17 l1 -33 158 0 c155 0 411 -14 465 -26 28
-6 28 -7 21 -57 -4 -29 -7 -90 -7 -137 1 -103 21 -163 61 -178 34 -14 332 -16
1032 -9 l554 5 23 29 c34 41 46 97 41 193 -5 93 -30 148 -76 170 -14 6 -148
10 -360 11 -185 1 -417 4 -515 8 -154 5 -180 8 -191 24 -16 21 -29 132 -20
173 l6 29 342 -3 c466 -6 606 12 649 80 36 54 49 140 53 338 3 107 7 206 10
219 l5 23 157 -4 c86 -2 163 -7 170 -11 8 -6 12 -44 12 -130 0 -144 8 -166 65
-183 62 -19 250 -17 291 2 45 22 51 48 57 251 12 390 -22 491 -178 526 -119
27 -334 40 -590 34 -215 -4 -248 -7 -319 -28 -112 -34 -115 -39 -120 -217 -2
-93 -7 -147 -15 -155 -32 -32 -575 -7 -610 28 -11 11 -17 58 -23 182 -4 92
-12 186 -18 208 -5 22 -10 43 -10 48 0 4 296 7 659 7 l658 0 34 23 c19 12 45
44 59 72 33 68 35 215 3 285 -27 59 -67 97 -115 110 -26 7 -214 10 -551 8
-612 -4 -567 -12 -567 112 0 172 -73 266 -229 291 -31 6 -284 12 -563 16 -460
5 -508 7 -508 22 0 27 -49 124 -78 154 -15 16 -54 43 -87 59 -114 58 -143 60
-895 64 -403 3 -700 8 -721 14 -19 5 -83 14 -142 19 -84 7 -112 14 -133 30
-17 13 -41 21 -65 21 -35 0 -39 -2 -39 -26z m54 -126 c11 -6 26 -17 31 -25 16
-20 107 -33 241 -33 117 0 124 1 124 20 0 19 7 20 208 20 157 0 216 -3 238
-14 18 -8 81 -16 164 -19 75 -3 148 -11 163 -16 36 -14 260 -31 417 -32 165 0
215 -9 246 -43 14 -14 30 -26 37 -26 7 0 24 -10 38 -23 31 -26 32 -32 50 -333
9 -150 9 -221 1 -280 -17 -122 -23 -147 -43 -173 -11 -13 -19 -32 -19 -41 0
-10 -7 -23 -15 -30 -8 -7 -15 -26 -15 -42 0 -54 -33 -89 -47 -51 -8 20 -71 84
-141 142 -54 44 -123 128 -158 190 -10 19 -34 49 -52 65 -19 17 -46 42 -61 56
-26 24 -36 31 -92 67 -14 9 -33 34 -42 55 -10 21 -26 46 -37 55 -11 10 -20 23
-20 31 0 30 -168 172 -230 194 -20 6 -32 19 -37 36 -8 34 -34 70 -100 138 -46
48 -56 54 -92 54 -39 0 -41 -1 -41 -31 0 -24 -3 -29 -12 -22 -7 6 -34 13 -60
16 l-47 6 6 -52 c5 -43 13 -59 45 -92 l38 -39 -2 -200 -3 -200 -70 1 -70 1 -6
223 c-7 243 -11 277 -41 308 -21 23 -35 26 -58 11 -12 -8 -12 -12 -2 -18 9 -7
12 -67 10 -268 l-3 -259 -32 3 c-30 3 -33 1 -33 -22 0 -24 -4 -26 -40 -26 -36
0 -40 3 -40 24 0 17 -5 23 -17 22 -17 -1 -18 15 -21 193 l-2 193 45 49 c47 50
58 77 28 64 -10 -4 -36 -14 -58 -22 -22 -8 -44 -19 -49 -24 -18 -17 -26 -9
-26 26 l0 35 -48 0 c-41 0 -54 -5 -88 -35 -21 -19 -47 -35 -58 -35 -10 0 -43
-27 -75 -59 -123 -129 -183 -188 -229 -226 -27 -22 -61 -59 -76 -82 -15 -24
-31 -43 -35 -43 -4 0 -14 -11 -21 -25 -15 -28 -136 -105 -165 -105 -22 0 -95
-78 -95 -102 0 -9 -4 -19 -9 -23 -5 -3 -21 -30 -35 -60 -23 -52 -27 -55 -60
-55 -31 0 -36 -3 -36 -24 0 -22 -43 -66 -65 -66 -3 0 -18 -13 -32 -30 -13 -16
-28 -30 -31 -30 -4 0 -6 90 -4 200 2 119 7 200 12 200 6 0 10 76 10 193 0 173
2 197 20 232 11 21 23 41 27 44 14 10 43 72 43 91 0 10 14 32 30 50 17 18 30
40 30 49 0 27 57 41 166 42 177 2 307 13 312 27 2 6 10 12 17 12 7 0 23 9 36
21 22 18 33 20 133 14 59 -3 118 -11 130 -17z m1956 -61 c20 -6 48 -20 63 -30
l27 -17 -2 -153 c-1 -118 -3 -138 -8 -87 -22 213 -23 215 -44 234 -12 10 -33
23 -48 28 -14 5 -29 16 -32 24 -7 17 -1 17 44 1z m-2872 -21 c-10 -7 -18 -22
-18 -32 0 -11 -9 -38 -21 -59 l-21 -40 6 40 c12 94 17 105 45 105 24 -1 24 -2
9 -14z m1092 -171 c-7 -8 -17 -15 -23 -15 -6 0 -2 7 9 15 25 19 30 19 14 0z
m2200 -4 c0 -5 17 -13 38 -19 20 -5 67 -21 105 -35 37 -14 67 -21 67 -16 0 5
59 9 131 9 105 0 139 -4 177 -19 33 -14 82 -21 165 -25 199 -9 222 -32 222
-219 0 -117 1 -119 27 -142 48 -41 119 -50 433 -50 160 0 396 4 525 9 l235 9
18 -43 c10 -23 16 -45 13 -48 -3 -3 -83 -7 -178 -9 -309 -6 -377 -10 -395 -24
-13 -11 -63 -13 -242 -11 -197 3 -231 6 -265 23 -22 10 -60 19 -85 19 -82 0
-222 22 -242 39 -15 12 -21 32 -25 91 -8 116 -9 118 -51 126 -21 4 -58 16 -83
28 -43 20 -66 21 -440 26 l-395 5 -3 88 c-2 65 0 87 10 88 7 1 24 3 37 4 27 3
46 24 63 72 12 33 13 33 75 33 35 0 63 -4 63 -9z m-2320 -69 c0 -4 -10 -13
-22 -21 -23 -14 -23 -14 -4 8 20 22 26 25 26 13z m-1237 -28 l37 -7 0 -88 0
-88 -442 -3 c-440 -3 -443 -3 -474 -25 -34 -24 -54 -80 -54 -151 0 -45 -10
-56 -62 -70 -20 -6 -46 -19 -58 -30 -30 -28 -79 -32 -369 -32 -141 -1 -398 -5
-571 -10 -197 -5 -316 -5 -318 1 -2 5 -15 9 -28 9 -29 0 -31 19 -6 49 26 32
168 41 689 41 384 0 448 2 483 16 22 9 45 25 50 35 6 10 10 65 10 124 0 188
24 211 236 224 166 10 823 13 877 5z m1345 -240 l-3 -77 -138 1 c-76 0 -141 2
-143 4 -2 3 60 68 139 146 l142 142 3 -70 c2 -38 2 -104 0 -146z m768 69 c79
-75 142 -138 139 -141 -2 -3 -69 -5 -147 -4 l-143 1 -3 140 c-1 78 0 141 4
141 3 0 71 -61 150 -137z m-1956 -53 c0 -60 -4 -100 -10 -100 -11 0 -14 182
-3 193 12 13 13 7 13 -93z m848 16 c-10 -7 -18 -17 -18 -22 -1 -14 -33 -49
-52 -57 -10 -3 -18 -13 -18 -21 0 -13 -28 -36 -44 -36 -4 0 4 15 16 33 22 33
113 117 126 117 4 0 -1 -7 -10 -14z m-1689 -52 c21 -15 61 -16 370 -13 l346 4
5 -159 c3 -109 2 -160 -6 -163 -6 -2 -46 -3 -90 -1 l-79 3 32 23 c18 13 54 25
83 29 l51 6 -6 111 c-4 61 -10 113 -12 116 -3 3 -185 3 -406 1 -329 -3 -403
-6 -410 -17 -10 -18 -37 -18 -37 -1 0 8 9 22 20 32 11 10 20 24 20 32 0 19 90
17 119 -3z m4031 -27 c0 -13 -9 -32 -20 -42 -20 -18 -20 -17 -20 18 0 31 9 44
33 46 4 1 7 -10 7 -22z m750 3 c-100 -10 -417 -10 -455 0 -16 4 96 7 250 7
176 0 252 -3 205 -7z m102 -102 c3 -54 1 -68 -10 -68 -17 0 -41 28 -42 48 0 6
7 12 15 12 11 0 15 13 15 53 1 73 17 40 22 -45z m-362 -8 c11 -7 -3 -9 -45 -9
-45 1 -54 3 -35 9 35 11 63 11 80 0z m-1253 -88 c25 -25 28 -32 14 -32 -13 0
-71 59 -71 72 0 11 18 -2 57 -40z m-1519 31 c-10 -2 -28 -2 -40 0 -13 2 -5 4
17 4 22 1 32 -1 23 -4z m412 -1 c0 -5 -9 -17 -20 -27 -20 -18 -20 -17 -20 8 0
20 5 27 20 27 11 0 20 -4 20 -8z m412 -27 l4 -35 -28 27 c-34 33 -35 43 -4 43
20 0 25 -6 28 -35z m488 12 c37 -26 50 -53 56 -119 l5 -63 -20 39 c-12 22 -21
51 -21 64 0 26 -24 51 -49 52 -8 0 -22 7 -32 16 -10 9 -33 20 -51 25 -26 7
-19 8 29 5 34 -2 71 -11 83 -19z m-1412 -19 c-8 -12 -21 -24 -29 -26 -8 -3 -3
7 10 22 30 32 39 34 19 4z m-837 -236 c-7 -12 -10 17 -11 100 0 155 14 185 18
35 1 -66 -2 -125 -7 -135z m582 231 c-4 -10 -19 -32 -34 -50 -15 -17 -30 -41
-34 -52 -3 -12 -13 -21 -21 -21 -8 0 -14 -4 -14 -9 0 -9 -61 -51 -73 -51 -10
0 5 39 19 51 8 6 14 19 14 28 0 23 74 101 96 101 10 0 26 5 34 10 20 13 20 13
13 -7z m2827 -8 c0 -26 8 -30 85 -39 44 -5 76 -13 210 -50 l90 -26 -175 6
c-151 6 -177 9 -191 25 -8 10 -26 21 -40 25 -13 3 -39 24 -58 45 l-33 39 56 0
c53 0 56 -1 56 -25z m-1840 5 c11 -7 1 -10 -35 -10 -36 0 -46 3 -35 10 8 5 24
10 35 10 11 0 27 -5 35 -10z m-492 -11 c-10 -5 -18 -16 -18 -24 0 -8 -6 -12
-14 -9 -12 5 -12 9 2 25 9 10 23 19 32 19 12 -1 12 -3 -2 -11z m122 7 c0 -2
-3 -11 -6 -20 -9 -23 -24 -20 -24 4 0 11 7 20 15 20 8 0 15 -2 15 -4z m-404
-181 c1 -85 -3 -155 -7 -155 -5 0 -9 -22 -9 -50 l0 -50 41 0 c35 0 47 6 85 45
24 25 47 45 51 45 4 0 -33 -40 -82 -90 -49 -49 -93 -90 -98 -90 -5 0 -6 92 -3
208 6 186 13 292 20 292 1 0 2 -70 2 -155z m2434 87 c-36 -6 -50 5 -50 40 l0
32 36 -35 c33 -32 34 -34 14 -37z m-5220 -12 c-10 -19 -21 -20 -250 -20 -181
0 -240 -3 -243 -12 -3 -7 -6 2 -6 20 l-1 32 255 0 c253 0 256 0 245 -20z
m7580 3 c0 -29 -12 -63 -21 -63 -5 0 -9 16 -9 35 l0 35 -217 3 -218 2 233 3
c215 2 232 1 232 -15z m-4934 -134 c-3 -78 -9 -145 -12 -150 -6 -11 -267 -12
-278 -2 -7 8 273 293 288 293 5 0 6 -57 2 -141z m2452 -22 c-3 -102 -8 -143
-23 -182 -11 -27 -23 -51 -27 -53 -5 -2 -8 -19 -8 -38 0 -37 -10 -43 -30 -19
-7 8 -28 15 -47 15 -29 0 -34 -3 -28 -17 4 -10 9 -60 12 -111 5 -76 9 -96 25
-105 24 -15 26 -87 2 -87 -9 0 -21 -13 -27 -30 -9 -25 -17 -30 -43 -30 -40 0
-126 -25 -181 -53 -47 -23 -43 -33 11 -31 20 1 38 -1 40 -5 3 -4 -78 -90 -180
-192 l-184 -184 2 190 3 190 43 2 c55 2 63 9 21 18 -18 4 -38 13 -44 19 -7 6
-26 22 -43 35 -30 23 -32 28 -32 90 l0 66 49 18 c55 19 159 22 211 6 19 -6 79
-12 133 -13 l97 -1 0 42 0 43 -246 0 -245 0 3 42 c3 39 6 43 33 49 24 5 27 7
13 13 -14 6 -18 20 -18 65 0 56 1 58 35 74 47 22 259 24 330 2 54 -16 64 -13
45 9 -6 9 -10 21 -7 28 3 8 9 3 15 -12 22 -51 37 -60 91 -60 49 0 51 1 51 28
0 15 9 41 20 57 11 17 20 44 20 61 0 17 7 37 15 44 8 7 15 20 15 30 0 9 9 29
20 43 11 14 20 35 20 47 0 12 5 31 11 42 22 40 30 -7 27 -145z m1137 153 c-44
-11 -65 -11 -65 0 0 6 21 9 48 9 42 -1 44 -2 17 -9z m-5010 -21 c-49 -5 -141
-20 -202 -32 -90 -19 -113 -21 -113 -10 0 8 12 13 30 13 19 0 34 7 42 20 12
19 23 20 173 19 157 -2 158 -2 70 -10z m3447 -261 c-5 -5 -65 -7 -133 -6
l-124 3 -3 40 c-2 22 -1 82 3 134 l7 94 129 -129 c71 -71 125 -132 121 -136z
m-4052 212 l0 -30 -62 0 c-34 0 -59 2 -57 4 22 21 86 56 100 56 14 0 19 -7 19
-30z m183 23 c-7 -2 -19 -2 -25 0 -7 3 -2 5 12 5 14 0 19 -2 13 -5z m2747 3
c0 -2 -13 -6 -30 -8 -16 -3 -30 -1 -30 4 0 4 14 8 30 8 17 0 30 -2 30 -4z
m3193 -23 c-67 -2 -179 -2 -250 0 -70 1 -15 3 122 3 138 0 195 -2 128 -3z
m-2773 -33 c0 -4 10 -10 23 -14 30 -7 71 -45 91 -84 8 -16 26 -38 40 -48 13
-11 27 -32 30 -48 6 -26 5 -28 -8 -17 -9 8 -16 17 -16 21 0 5 -46 53 -102 109
-64 62 -94 98 -80 94 12 -3 22 -9 22 -13z m-3822 -7 c-21 -2 -55 -2 -75 0 -21
2 -4 4 37 4 41 0 58 -2 38 -4z m5802 -15 c19 -9 49 -19 65 -22 56 -12 135 -51
135 -67 0 -8 6 -21 13 -27 6 -7 15 -48 18 -90 6 -73 21 -130 56 -214 9 -21 19
-38 23 -38 5 0 11 -11 14 -25 4 -14 11 -25 16 -25 6 0 10 -7 10 -14 0 -16 60
-66 78 -66 7 0 12 -6 12 -14 0 -19 106 -26 395 -26 l243 0 17 37 c13 26 19 74
24 177 l6 141 80 8 c129 13 625 1 729 -18 48 -8 96 -20 106 -25 28 -15 40 -95
40 -268 0 -183 -8 -262 -25 -262 -9 0 -13 51 -17 198 -5 214 -17 267 -62 277
-51 10 -124 16 -311 25 -223 10 -371 1 -412 -25 -37 -24 -63 -93 -70 -185 l-6
-80 42 0 c37 0 41 -2 41 -24 0 -14 5 -28 10 -31 6 -3 10 -22 10 -41 0 -19 -4
-34 -10 -34 -5 0 -10 12 -10 26 0 20 -3 24 -12 16 -7 -5 -24 -12 -38 -14 -23
-3 -26 -9 -33 -74 l-9 -72 -45 -6 c-71 -10 -444 -7 -640 4 -197 12 -303 24
-377 42 -64 16 -76 44 -79 182 -2 92 -4 102 -19 98 -25 -6 -22 10 3 26 18 12
21 21 16 58 -14 128 -108 154 -561 154 l-244 0 -7 93 c-4 50 -3 124 2 162 l8
70 65 6 c36 4 202 6 370 5 261 -1 310 -3 340 -18z m-4056 -10 c0 -10 -1 -83
-2 -162 l-2 -144 -297 -6 c-329 -6 -362 -9 -392 -37 -11 -10 -29 -19 -39 -19
-31 0 -55 -36 -60 -90 -4 -41 -2 -50 12 -50 14 0 16 -17 16 -137 -1 -164 -9
-183 -82 -183 -23 0 -62 -5 -84 -10 -74 -17 -464 -40 -679 -40 -169 1 -214 4
-229 15 -11 8 -36 15 -57 15 -47 0 -49 7 -49 175 -1 72 -4 148 -8 170 -7 38
-10 40 -47 45 -37 5 -40 7 -48 48 -4 23 -12 42 -18 42 -5 0 -9 6 -9 14 0 8
-10 18 -22 22 -32 11 -387 7 -401 -4 -18 -15 -112 -32 -172 -32 -36 0 -55 -4
-55 -12 0 -16 -41 -58 -57 -58 -7 0 -14 -1 -15 -2 0 -2 -4 -88 -7 -193 -6
-184 -7 -190 -27 -193 -31 -4 -35 25 -31 219 4 139 2 169 -9 169 -10 0 -14 13
-14 40 0 33 3 40 20 40 11 0 26 12 35 29 8 17 19 32 24 35 4 3 51 12 102 21
209 34 224 38 247 62 30 30 59 36 140 29 162 -14 250 -31 265 -50 6 -8 10 -7
14 2 3 7 25 12 60 12 77 0 86 -12 91 -121 4 -76 7 -89 23 -94 17 -6 19 -17 19
-89 0 -73 3 -85 23 -104 33 -31 107 -42 281 -42 209 0 416 32 478 74 47 31 59
77 68 269 7 146 11 174 32 214 21 43 29 49 84 68 34 11 68 25 75 31 9 8 74 12
184 12 94 1 247 5 340 10 239 13 280 11 279 -10z m1734 -25 c24 -3 46 -11 49
-19 3 -8 9 -14 14 -14 4 0 33 -25 64 -55 30 -30 60 -55 65 -55 6 0 24 -10 40
-22 27 -19 30 -28 30 -73 l0 -52 -302 -7 c-373 -8 -430 -2 -386 42 9 9 9 12 0
12 -7 0 -12 16 -12 40 l0 40 50 0 c35 0 50 4 50 13 0 16 33 45 80 72 19 10 59
36 90 58 47 33 60 38 90 32 19 -3 54 -8 78 -12z m-1561 -75 c-3 -8 -6 -5 -6 6
-1 11 2 17 5 13 3 -3 4 -12 1 -19z m2149 -109 c3 -5 20 -9 38 -9 31 0 34 -3
38 -35 2 -19 1 -40 -2 -45 -6 -10 -120 88 -120 102 0 9 39 -3 46 -13z m-2139
-19 c22 0 22 -1 -11 -62 -24 -46 -35 -82 -40 -132 -4 -38 -13 -81 -21 -97 -10
-18 -15 -60 -16 -121 0 -118 -14 -162 -51 -166 l-27 -3 6 68 c3 37 10 70 15
71 4 2 8 46 8 98 0 77 -3 94 -15 94 -19 0 -19 4 0 39 8 16 17 59 21 97 4 38
14 82 23 97 14 25 20 28 51 23 19 -3 45 -6 57 -6z m553 -28 c0 -10 9 -24 20
-32 17 -12 20 -26 20 -85 0 -42 -5 -76 -12 -83 -19 -19 -202 -16 -245 5 -28
13 -39 14 -54 5 -11 -7 -59 -12 -117 -12 -82 0 -102 3 -115 18 -14 16 -14 21
9 65 13 27 24 59 24 73 0 15 6 24 15 24 8 0 15 6 15 14 0 20 30 23 253 24 173
2 187 1 187 -16z m420 -50 c0 -14 -49 -56 -57 -49 -3 4 -1 7 5 7 7 0 12 6 12
13 0 14 20 37 32 37 4 0 8 -4 8 -8z m1115 -101 c-4 -14 -9 -46 -13 -70 -4 -25
-13 -46 -20 -49 -11 -3 -12 0 -3 16 6 11 11 51 11 88 0 59 2 65 16 53 11 -9
14 -21 9 -38z m-2405 14 c0 -2 -12 -11 -28 -19 -24 -12 -32 -12 -62 1 -47 20
-185 14 -221 -10 -22 -15 -46 -17 -135 -15 -100 3 -107 4 -79 16 17 7 73 17
125 21 107 9 400 14 400 6z m3888 -1 c81 -6 92 -9 92 -25 0 -18 -14 -19 -264
-19 l-264 0 -7 -56 c-4 -31 -3 -114 0 -185 7 -127 7 -129 -14 -129 -21 0 -21
3 -21 205 l0 204 73 4 c144 6 316 7 405 1z m-3748 -44 c0 -38 -2 -40 -30 -40
-28 0 -30 2 -30 40 0 38 2 40 30 40 28 0 30 -2 30 -40z m-2160 4 c0 -23 -3
-25 -36 -22 -27 2 -39 9 -45 26 -8 21 -6 22 36 22 42 0 45 -2 45 -26z m6130
-4 c18 -18 20 -33 20 -154 0 -104 4 -148 19 -195 10 -34 16 -61 12 -61 -11 0
-79 150 -70 156 15 9 10 176 -6 204 -17 29 -20 70 -5 70 6 0 19 -9 30 -20z
m-6605 -2 c-30 -17 -63 -51 -80 -84 l-15 -29 1 30 c2 72 21 92 89 94 24 0 24
0 5 -11z m4380 -18 c-11 -5 -60 -9 -110 -9 -49 0 -99 4 -110 9 -13 5 29 9 110
9 81 0 123 -4 110 -9z m-4200 -7 c-11 -3 -24 -9 -29 -14 -6 -5 -17 -9 -25 -9
-10 1 -7 6 9 15 14 8 34 14 45 13 l20 0 -20 -5z m7893 -20 c-18 -15 -36 -32
-40 -38 -4 -5 -8 0 -8 12 0 29 26 53 56 53 25 0 25 0 -8 -27z m-3088 -43 c-18
-33 -23 -16 -8 26 10 30 14 33 16 16 2 -11 -2 -31 -8 -42z m3390 40 c11 -7 7
-10 -18 -10 -20 0 -31 4 -27 10 8 13 26 13 45 0z m-5003 -43 c3 -4 21 -7 40
-7 33 0 33 -1 33 -45 0 -43 -1 -45 -30 -45 -23 0 -30 -5 -30 -19 0 -11 -6 -23
-12 -27 -18 -12 -396 -6 -418 6 -10 5 -22 19 -25 30 -4 13 -15 20 -31 20 -20
0 -24 5 -24 28 0 15 -4 34 -9 42 -6 8 -8 17 -6 20 5 7 504 5 512 -3z m1348 3
c-3 -5 -12 -10 -18 -10 -7 0 -6 4 3 10 19 12 23 12 15 0z m-2271 -26 c13 -5
14 -9 5 -20 -13 -16 -29 -9 -29 12 0 16 2 16 24 8z m2383 -16 c-3 -8 -6 -5 -6
6 -1 11 2 17 5 13 3 -3 4 -12 1 -19z m-226 -38 c-2 -8 -7 -28 -10 -45 -6 -25
-15 -32 -64 -48 -35 -12 -59 -26 -62 -38 -4 -11 -11 -19 -16 -19 -18 0 -86
-75 -93 -101 -5 -23 -12 -28 -48 -32 -46 -5 -138 10 -138 22 0 16 -38 51 -55
51 -9 0 -19 9 -22 20 -3 11 -9 20 -13 20 -4 0 -31 21 -59 46 -44 39 -51 51
-51 83 0 20 -5 42 -12 49 -10 10 59 12 317 10 288 -3 330 -5 326 -18z m-1746
0 c3 -5 1 -10 -4 -10 -6 0 -11 -18 -11 -40 0 -29 -4 -40 -15 -40 -13 0 -15
-68 -15 -549 0 -567 3 -611 40 -611 12 0 20 -10 24 -33 4 -23 15 -38 31 -45
14 -6 25 -18 25 -26 0 -7 7 -19 15 -26 28 -23 18 -40 -25 -40 l-40 0 0 44 c0
45 -10 56 -51 56 -10 0 -36 7 -57 16 l-39 15 -7 92 c-3 50 -11 96 -16 101 -13
13 -12 344 1 451 6 44 14 150 18 235 5 85 14 173 19 195 6 22 14 82 18 133 l7
92 38 0 c21 0 41 -4 44 -10z m-535 -70 c0 -22 -4 -40 -10 -40 -11 0 -13 39 -4
64 10 26 14 19 14 -24z m1227 -24 l21 -24 -29 -4 c-26 -4 -29 -2 -29 24 0 34
10 35 37 4z m1459 -2 c-4 -9 -9 -15 -11 -12 -3 3 -3 13 1 22 4 9 9 15 11 12 3
-3 3 -13 -1 -22z m-1156 -63 c0 -27 -11 -26 -45 3 -22 19 -26 29 -21 50 l7 27
29 -30 c17 -16 30 -39 30 -50z m1960 49 c0 -29 -2 -30 -43 -30 -24 0 -48 -5
-55 -12 -6 -6 -14 -9 -18 -6 -3 4 4 15 15 25 12 9 21 25 21 35 0 14 8 18 40
18 38 0 40 -2 40 -30z m-3261 -54 c-2 -2 -15 -7 -29 -10 l-25 -7 25 15 c21 12
42 14 29 2z m822 9 c18 -6 19 -20 19 -181 0 -96 -4 -174 -8 -174 -17 0 -335
343 -326 352 7 7 294 9 315 3z m5251 -25 c13 0 18 -6 16 -17 -2 -10 -12 -18
-23 -18 -15 0 -21 7 -22 30 -1 17 0 24 3 18 3 -7 15 -13 26 -13z m-4958 -48
c-6 -9 -54 32 -54 47 0 11 8 7 28 -14 15 -17 27 -31 26 -33z m2010 34 c-3 -9
-10 -16 -15 -16 -5 0 -9 -6 -9 -14 0 -7 -11 -21 -25 -30 -14 -9 -25 -22 -25
-30 0 -22 -44 -66 -67 -66 -12 0 -25 -4 -28 -10 -3 -5 -16 -15 -28 -21 -19
-11 17 30 156 175 37 39 53 44 41 12z m856 -50 c0 -6 -9 0 -20 12 -11 12 -20
29 -20 39 0 13 5 10 20 -12 11 -16 20 -34 20 -39z m-4350 40 c0 -7 -9 -16 -20
-19 -15 -4 -20 0 -20 14 0 12 7 19 20 19 11 0 20 -6 20 -14z m249 10 c-2 -2
-42 -7 -88 -10 -58 -5 -81 -4 -76 3 3 6 40 11 87 11 45 0 79 -2 77 -4z m592
-148 c7 -21 18 -38 25 -38 6 0 19 -11 28 -25 9 -14 23 -25 31 -25 15 0 45 -49
45 -73 0 -8 6 -17 14 -20 8 -3 22 -24 32 -46 10 -23 24 -41 32 -41 8 0 26 -6
40 -14 15 -7 38 -19 52 -26 25 -12 109 -107 156 -175 13 -20 38 -48 54 -62 17
-14 30 -28 30 -33 0 -12 70 -80 82 -80 13 0 78 -65 78 -78 0 -13 132 -132 146
-132 7 0 19 -11 28 -24 8 -14 25 -28 37 -31 25 -8 89 -74 89 -92 0 -7 12 -23
26 -36 l25 -24 -107 -6 c-153 -10 -374 -9 -374 2 0 4 -15 11 -32 15 -18 3 -69
12 -113 21 -50 9 -141 15 -242 15 l-163 0 0 29 c0 17 -4 33 -10 36 -5 3 -10
15 -10 25 0 11 -12 24 -30 32 -22 9 -32 22 -36 45 -3 18 -13 34 -23 36 -9 3 1
3 22 2 33 -3 37 -1 32 16 -5 14 -1 19 14 19 15 0 21 -6 21 -24 0 -22 5 -24 93
-33 50 -5 154 -7 230 -5 l137 4 0 31 1 32 30 -33 c25 -28 36 -33 67 -30 l37 3
-35 16 c-19 9 -44 26 -54 38 -11 11 -25 21 -33 21 -11 0 -103 128 -103 144 0
9 -43 100 -50 106 -4 3 -14 25 -24 50 -19 49 -43 80 -60 80 -6 0 -48 25 -92
56 -70 48 -82 60 -87 90 -8 51 -26 63 -91 63 -53 0 -58 -2 -67 -27 -26 -72
-28 -62 -28 145 l-1 213 59 -58 c34 -32 65 -73 72 -94z m3137 145 c-21 -2 -55
-2 -75 0 -21 2 -4 4 37 4 41 0 58 -2 38 -4z m-348 -110 c0 -6 4 -13 9 -15 13
-5 16 -315 3 -370 -12 -52 -25 -78 -59 -121 -13 -16 -23 -41 -23 -55 -1 -35
-22 -62 -49 -62 -20 0 -21 -4 -21 -144 0 -138 -1 -146 -22 -160 -12 -9 -31
-16 -41 -16 -10 0 -31 -10 -48 -22 -24 -18 -49 -23 -142 -29 -61 -4 -156 -8
-210 -8 -89 -1 -100 -3 -120 -24 -25 -27 -113 -71 -172 -86 -22 -6 -99 -11
-171 -11 l-132 0 -4 29 c-3 21 2 34 21 50 14 12 51 45 81 72 30 28 67 55 81
60 15 6 29 19 32 30 3 10 13 22 24 25 10 4 28 18 41 32 12 14 22 21 22 16 0
-6 -5 -15 -12 -22 -9 -9 -9 -12 0 -12 7 0 12 -24 14 -62 l3 -63 53 -3 c37 -2
52 -7 52 -18 0 -10 12 -14 40 -14 29 0 40 4 40 15 0 11 12 15 43 16 103 1 255
17 277 30 13 8 35 26 48 42 13 15 29 27 36 27 7 0 25 13 41 30 24 25 30 41 33
90 2 33 8 60 12 60 24 0 35 295 13 322 -7 8 -15 40 -19 71 -5 39 -11 57 -21
57 -7 0 -16 -7 -19 -15 -4 -8 -12 -15 -18 -15 -13 0 -69 -28 -131 -65 -22 -13
-50 -29 -62 -36 -13 -7 -23 -18 -23 -26 0 -7 -16 -29 -35 -47 -21 -21 -35 -44
-35 -59 0 -16 -14 -37 -40 -61 -22 -20 -40 -38 -40 -41 0 -19 -48 -55 -72 -55
-17 0 -38 -9 -51 -23 -12 -13 -35 -32 -52 -41 l-30 -18 31 28 c17 16 41 47 52
69 20 40 106 140 162 190 40 36 160 166 160 173 0 19 147 122 175 122 7 0 24
9 38 20 14 11 33 20 43 20 20 0 64 46 64 66 0 8 11 21 25 30 14 9 25 23 25 30
0 8 4 14 10 14 5 0 13 12 16 27 l7 27 23 -30 c13 -16 24 -34 24 -41z m-793
-140 c-2 -32 -3 -6 -3 57 0 63 1 89 3 58 2 -32 2 -84 0 -115z m1912 121 c9 -8
-75 -2 -94 6 -12 5 1 6 35 3 30 -3 57 -7 59 -9z m-4311 -3 c9 -5 12 -31 10
-92 l-3 -84 -240 0 -240 0 3 53 c6 77 15 106 43 119 28 15 405 18 427 4z
m3747 -15 c8 -10 17 -44 20 -75 4 -31 7 -63 8 -71 2 -13 -31 -15 -234 -18
l-236 -2 -7 37 c-10 65 -7 141 7 147 6 3 106 4 220 3 191 -2 210 -4 222 -21z
m850 -6 l110 -7 -125 -1 c-77 -1 -148 4 -185 13 l-60 14 75 -6 c41 -3 125 -9
185 -13z m-3698 -123 c-2 -23 -3 -1 -3 48 0 50 1 68 3 42 2 -26 2 -67 0 -90z
m4345 120 c-7 -8 -27 -11 -59 -7 l-48 4 50 7 c28 3 54 7 59 7 5 1 4 -4 -2 -11z
m-6619 -4 c-7 -2 -19 -2 -25 0 -7 3 -2 5 12 5 14 0 19 -2 13 -5z m5307 -58 c8
-7 29 -15 45 -18 17 -3 53 -10 80 -16 28 -5 115 -15 195 -21 154 -12 266 -33
290 -56 12 -12 -19 -14 -216 -14 -350 0 -434 24 -434 126 0 26 7 25 40 -1z
m-2620 -51 c0 -9 -37 15 -51 33 -10 12 -5 11 19 -6 17 -12 32 -24 32 -27z
m4056 4 c-4 -22 -9 -45 -12 -49 -7 -12 -74 -29 -116 -29 -29 0 -36 3 -32 15 4
8 12 15 20 15 8 0 14 5 14 10 0 6 16 10 35 10 28 0 35 4 35 19 0 19 34 51 54
51 5 0 6 -19 2 -42z m-6278 25 c-10 -2 -28 -2 -40 0 -13 2 -5 4 17 4 22 1 32
-1 23 -4z m2687 -73 c-78 -79 -119 -100 -135 -70 -13 25 -13 30 5 30 13 0 114
60 160 95 49 38 33 9 -30 -55z m3330 40 c-3 -5 -10 -10 -16 -10 -5 0 -9 5 -9
10 0 6 7 10 16 10 8 0 12 -4 9 -10z m-140 -35 c-112 -19 -180 -18 -195 0 -11
13 5 15 131 14 l144 -1 -80 -13z m-6045 -20 l35 -13 -42 -1 c-32 -1 -43 3 -43
14 0 18 4 18 50 0z m-670 -11 c23 -14 15 -15 -100 -9 -183 8 -218 23 -55 24
99 0 136 -3 155 -15z m4127 -57 c-10 -24 -25 -38 -48 -46 l-33 -11 22 23 c12
13 22 29 22 35 0 7 4 12 9 12 5 0 15 15 22 33 12 28 14 29 17 11 2 -12 -3 -38
-11 -57z m-1470 41 c-3 -8 -6 -5 -6 6 -1 11 2 17 5 13 3 -3 4 -12 1 -19z m548
-58 l39 -40 -42 0 -42 0 0 40 c0 22 1 40 3 40 2 0 21 -18 42 -40z m-484 4 c22
-14 50 -29 62 -34 21 -8 21 -9 -4 -9 -41 -1 -86 18 -104 45 -20 31 -5 31 46
-2z m-966 -79 l0 -90 -236 -6 c-219 -6 -304 -12 -386 -25 -22 -4 -33 -13 -37
-30 -4 -13 -13 -24 -21 -24 -9 0 -15 -9 -15 -24 0 -13 -7 -43 -15 -66 -9 -24
-15 -77 -15 -124 0 -81 -15 -126 -42 -126 -6 0 -16 -8 -23 -17 -11 -15 -35
-18 -148 -21 -126 -4 -139 -3 -171 17 -34 21 -46 22 -373 24 -186 1 -418 0
-516 -3 -151 -4 -179 -3 -187 10 -17 26 -7 55 20 57 14 1 43 8 65 15 50 16
960 18 1015 2 19 -5 61 -8 93 -6 55 4 57 5 57 31 0 20 7 31 25 39 14 6 25 18
25 27 0 8 7 15 15 15 27 0 34 35 37 189 2 84 6 155 9 157 4 2 42 8 85 12 44 5
106 21 139 35 60 25 62 25 330 23 l270 -1 0 -90z m3878 70 c34 -16 91 -30 145
-37 l89 -11 6 -131 c4 -74 11 -132 17 -134 5 -2 10 -26 10 -53 0 -56 30 -109
62 -109 14 0 18 -8 18 -41 l0 -41 118 4 c64 2 126 9 137 15 71 37 79 38 219
33 99 -4 141 -9 144 -17 3 -10 42 -13 153 -13 142 0 153 1 195 25 25 14 60 25
79 25 18 0 37 5 40 10 3 6 52 10 111 10 l104 0 0 -40 c0 -32 -4 -40 -18 -40
-10 0 -24 -6 -30 -12 -8 -8 -38 -11 -85 -9 -74 3 -119 -12 -169 -56 -27 -24
-437 -5 -464 21 -13 14 -281 26 -565 26 -94 0 -160 4 -164 10 -3 6 -17 10 -31
10 -21 0 -24 4 -24 40 0 33 3 40 20 40 18 0 20 7 20 66 0 45 -5 70 -15 80 -8
9 -15 24 -15 34 0 10 -4 22 -10 25 -5 3 -10 19 -10 35 0 25 -5 31 -37 39 -61
15 -173 23 -418 30 l-230 6 3 25 c2 14 6 55 9 93 l5 67 263 0 c260 0 263 0
318 -25z m-2033 -20 c0 -8 -7 -15 -15 -15 -16 0 -20 12 -8 23 11 12 23 8 23
-8z m1054 -17 c12 -45 7 -58 -19 -58 -22 0 -25 4 -25 34 0 30 9 42 31 45 4 1
9 -9 13 -21z m-3816 -35 c3 -19 -1 -23 -26 -23 -29 0 -30 -1 -36 -67 -9 -84
-22 -120 -47 -126 -15 -4 -18 -1 -14 16 3 12 7 67 9 122 3 55 5 101 5 103 1 2
25 2 54 0 45 -3 52 -6 55 -25z m5232 2 c0 -16 -6 -25 -15 -25 -8 0 -15 7 -15
15 0 11 -11 15 -40 15 -22 0 -40 5 -40 10 0 6 25 10 55 10 52 0 55 -1 55 -25z
m-2580 -75 c0 -17 7 -20 40 -20 38 0 39 -1 30 -26 -14 -35 -14 -34 24 -34 30
0 34 -4 40 -31 3 -17 6 -43 6 -58 0 -14 7 -39 15 -55 11 -20 15 -59 15 -132
l0 -104 -39 0 c-42 0 -101 -39 -101 -66 0 -10 -13 -14 -49 -14 -46 0 -49 1
-55 31 -3 17 -6 143 -6 280 l0 249 40 0 c33 0 40 -3 40 -20z m-140 -262 c0
-196 -3 -249 -12 -245 -44 19 -68 33 -68 42 0 6 -14 19 -30 30 -16 11 -30 23
-30 28 0 4 -11 7 -25 7 l-25 0 0 189 c0 142 3 191 13 194 6 3 49 5 95 5 l82 1
0 -251z m660 243 c14 -1 -307 -331 -322 -331 -5 0 -8 74 -8 165 l0 164 128 3
c70 2 141 2 157 1 17 -1 37 -2 45 -2z m-940 -122 l0 -121 -125 118 c-69 65
-125 119 -125 121 0 2 56 3 125 3 l125 0 0 -121z m3012 -8 c-1 -3 -6 0 -11 5
-5 5 -6 32 -3 59 l7 50 5 -55 c3 -30 4 -57 2 -59z m-2071 -58 c-51 -64 -97
-113 -103 -113 -14 0 25 62 48 77 13 8 24 22 24 29 0 8 6 14 14 14 7 0 19 7
26 15 7 8 15 15 17 15 3 0 -9 -17 -26 -37z m615 -48 c-6 -30 -60 -94 -71 -84
-3 3 12 39 33 80 37 74 51 76 38 4z m-3801 13 c-4 -13 -11 -27 -17 -33 -5 -5
-66 -12 -135 -13 -115 -3 -126 -2 -114 12 10 12 32 16 80 17 38 0 87 8 116 19
68 25 78 25 70 -2z m5152 0 c-3 -8 -6 -5 -6 6 -1 11 2 17 5 13 3 -3 4 -12 1
-19z m252 -4 l32 -7 -36 -24 c-33 -22 -42 -24 -101 -18 -59 7 -64 9 -64 31 0
23 3 24 69 24 38 0 83 -3 100 -6z m-6099 -32 c0 -17 -12 -20 -112 -25 -62 -4
-188 -7 -280 -7 -170 0 -203 7 -163 37 15 10 78 13 287 13 254 0 268 -1 268
-18z m4180 3 c-7 -9 -15 -13 -17 -11 -7 7 7 26 19 26 6 0 6 -6 -2 -15z m2228
-22 c-21 -2 -57 -2 -80 0 -24 2 -7 4 37 4 44 0 63 -2 43 -4z m450 0 c-21 -2
-55 -2 -75 0 -21 2 -4 4 37 4 41 0 58 -2 38 -4z m-3118 -62 c0 -5 -7 -12 -16
-15 -14 -5 -15 -4 -4 9 14 17 20 19 20 6z m639 -19 c-6 -9 -23 -23 -37 -30
-23 -10 -22 -7 8 18 41 35 44 36 29 12z m-355 -15 c27 -20 10 -47 -30 -47 -38
0 -41 6 -18 38 18 25 24 27 48 9z m-439 -89 c-50 -27 -65 -55 -65 -118 l0 -60
-50 0 c-27 0 -50 4 -50 9 0 4 19 21 42 37 29 21 37 30 25 32 -12 3 -17 14 -17
39 0 53 23 73 84 73 43 -1 48 -2 31 -12z m-420 -157 c3 -5 1 -12 -5 -16 -5 -3
-10 1 -10 9 0 18 6 21 15 7z"/>
<path d="M3740 3771 c-81 -9 -110 -19 -110 -36 0 -7 -11 -22 -25 -33 -14 -11
-25 -23 -25 -26 0 -3 -12 -30 -26 -59 -18 -36 -29 -79 -35 -137 -4 -47 -13
-114 -18 -150 -15 -90 -13 -270 2 -297 28 -49 71 39 60 125 -6 51 -5 52 20 52
14 0 32 7 41 15 8 8 19 15 25 15 6 0 11 4 11 8 0 4 15 16 33 26 40 23 104 90
137 144 14 23 31 42 38 42 6 0 12 6 12 13 0 14 60 71 94 89 12 6 44 35 73 65
34 35 57 51 67 47 19 -7 20 -16 4 -32 -18 -18 1 -15 59 10 60 26 70 56 29 83
-48 32 -315 52 -466 36z m64 -135 c-11 -8 -33 -18 -47 -21 -15 -4 -30 -11 -33
-16 -3 -5 -12 -9 -20 -9 -12 0 -11 4 4 21 20 20 60 37 97 38 19 1 19 1 -1 -13z
m-211 -11 c-3 -9 -8 -14 -10 -11 -3 3 -2 9 2 15 9 16 15 13 8 -4z m-16 -72
c-3 -10 -5 -2 -5 17 0 19 2 27 5 18 2 -10 2 -26 0 -35z m-20 -195 c-3 -7 -5
-2 -5 12 0 14 2 19 5 13 2 -7 2 -19 0 -25z"/>
<path d="M5920 3749 c-74 -3 -203 -7 -286 -8 -83 0 -153 -4 -157 -7 -7 -7 23
-74 34 -74 17 0 68 -65 74 -96 3 -19 12 -34 19 -34 8 0 21 -11 30 -25 9 -14
23 -25 32 -25 19 0 84 -62 84 -81 0 -15 70 -69 89 -69 5 0 14 -6 18 -13 4 -7
23 -19 40 -26 18 -7 31 -17 28 -21 -2 -4 2 -16 10 -26 8 -10 15 -26 15 -35 0
-9 11 -22 25 -29 13 -7 27 -26 30 -41 4 -16 10 -29 14 -29 4 0 20 -22 34 -49
32 -57 57 -73 57 -36 0 23 4 25 44 25 42 0 44 1 50 38 15 82 18 330 7 432 -12
106 -29 150 -56 150 -8 0 -20 9 -27 20 -7 11 -21 20 -30 20 -13 0 -18 8 -18
25 0 14 -5 24 -12 23 -7 -1 -74 -5 -148 -9z m-340 -95 c0 -8 -4 -12 -10 -9 -5
3 -10 10 -10 16 0 5 5 9 10 9 6 0 10 -7 10 -16z m462 -51 c10 -3 20 -14 23
-24 4 -10 13 -19 22 -19 15 0 14 -22 -3 -27 -12 -4 -22 4 -64 51 -25 28 -30
37 -15 31 11 -4 28 -9 37 -12z m74 -500 c-3 -3 -13 0 -22 8 -15 12 -14 14 3
20 17 6 32 -15 19 -28z"/>
<path d="M3392 1530 c0 -19 2 -27 5 -17 2 9 2 25 0 35 -3 9 -5 1 -5 -18z"/>
<path d="M3383 1360 c0 -47 2 -66 4 -42 2 23 2 61 0 85 -2 23 -4 4 -4 -43z"/>
<path d="M3770 995 c47 -18 60 -18 60 0 0 11 -12 15 -47 14 l-48 -1 35 -13z"/>
<path d="M4968 1287 c-5 -10 -8 -42 -7 -70 0 -45 2 -48 10 -27 6 13 9 45 7 70
-2 31 -5 39 -10 27z"/>
<path d="M1516 2684 c-9 -8 -16 -28 -16 -44 0 -39 24 -60 70 -60 42 0 80 29
80 60 0 9 -9 26 -20 38 -25 27 -90 30 -114 6z"/>
<path d="M1717 2682 c-40 -44 -6 -102 58 -102 65 0 100 64 57 103 -26 23 -94
22 -115 -1z"/>
<path d="M1920 2680 c-43 -43 -9 -100 59 -100 47 0 71 20 71 60 0 16 -7 36
-16 44 -23 23 -89 21 -114 -4z"/>
<path d="M7696 2678 c-34 -48 -6 -98 55 -98 44 0 79 27 79 60 0 56 -102 84
-134 38z"/>
<path d="M7900 2680 c-43 -43 -9 -100 58 -100 64 0 97 64 54 103 -26 24 -87
22 -112 -3z"/>
<path d="M8107 2682 c-21 -23 -22 -66 -1 -86 23 -24 89 -21 115 5 24 24 20 65
-8 87 -25 18 -87 15 -106 -6z"/>
<path d="M1517 2472 c-22 -24 -21 -65 1 -85 21 -19 73 -22 102 -7 26 14 34 57
15 86 -20 31 -93 34 -118 6z"/>
<path d="M1717 2472 c-40 -44 -6 -102 58 -102 65 0 100 64 57 103 -26 23 -94
22 -115 -1z"/>
<path d="M1920 2470 c-42 -42 -9 -100 58 -100 20 0 45 7 55 14 22 17 22 68 -1
89 -26 24 -87 22 -112 -3z"/>
<path d="M7697 2472 c-24 -26 -21 -68 5 -86 49 -34 128 -7 128 44 0 53 -96 83
-133 42z"/>
<path d="M7900 2470 c-43 -43 -9 -100 58 -100 64 0 97 64 54 103 -26 24 -87
22 -112 -3z"/>
<path d="M8107 2472 c-40 -43 -8 -102 54 -102 48 0 72 20 72 60 0 20 -7 38
-18 46 -27 20 -89 18 -108 -4z"/>
<path d="M7797 1502 c-21 -23 -22 -66 -1 -86 19 -19 84 -21 106 -3 48 37 15
107 -51 107 -24 0 -44 -7 -54 -18z"/>
<path d="M8000 1500 c-25 -25 -26 -62 -2 -83 23 -21 81 -22 110 -1 48 33 12
104 -53 104 -22 0 -43 -8 -55 -20z"/>
<path d="M8200 1500 c-43 -43 -9 -100 58 -100 64 0 97 64 54 103 -26 24 -87
22 -112 -3z"/>
<path d="M8442 1504 c-27 -19 -29 -64 -4 -87 26 -23 94 -22 115 1 56 61 -41
136 -111 86z"/>
<path d="M8642 1497 c-27 -29 -28 -51 -2 -77 22 -22 78 -27 111 -10 25 14 26
71 1 93 -28 25 -84 22 -110 -6z"/>
<path d="M1022 1494 c-23 -16 -29 -57 -13 -82 14 -22 72 -31 104 -15 21 11 27
20 27 47 0 59 -65 87 -118 50z"/>
<path d="M1220 1490 c-63 -63 45 -144 112 -83 42 38 6 103 -57 103 -22 0 -43
-8 -55 -20z"/>
<path d="M1428 1493 c-39 -46 -28 -86 28 -102 56 -16 94 9 94 61 0 51 -88 80
-122 41z"/>
<path d="M1660 1490 c-25 -25 -25 -51 -2 -81 23 -27 85 -29 113 -3 43 39 7
104 -56 104 -22 0 -43 -8 -55 -20z"/>
<path d="M1872 1494 c-26 -18 -30 -75 -7 -94 31 -26 106 -12 122 23 28 62 -55
113 -115 71z"/>
<path d="M2702 1264 c-34 -23 -31 -79 6 -98 33 -17 77 -13 103 10 61 55 -39
137 -109 88z"/>
<path d="M2902 1257 c-49 -52 -13 -102 70 -98 35 1 58 26 58 61 0 57 -86 82
-128 37z"/>
<path d="M3110 1262 c-26 -21 -30 -66 -8 -88 18 -18 92 -21 113 -4 8 7 15 27
15 46 0 57 -72 85 -120 46z"/>
<path d="M6542 1264 c-26 -18 -30 -75 -7 -94 8 -7 33 -13 56 -13 32 -1 46 4
60 22 24 30 24 42 -2 75 -24 30 -72 35 -107 10z"/>
<path d="M6742 1260 c-46 -43 -13 -105 54 -103 67 2 97 61 52 103 -12 11 -35
20 -53 20 -18 0 -41 -9 -53 -20z"/>
<path d="M6941 1254 c-26 -33 -26 -45 -2 -75 14 -17 29 -23 59 -23 51 0 72 18
72 60 0 63 -89 89 -129 38z"/>
<path d="M6461 1223 c-11 -47 -22 -81 -54 -173 -9 -25 -21 -64 -26 -86 -16
-60 -46 -94 -83 -94 -49 0 -128 -41 -128 -66 0 -12 -7 -38 -16 -59 -8 -20 -14
-41 -12 -45 2 -5 38 3 80 17 128 42 191 114 228 257 18 70 39 296 28 296 -3 0
-11 -21 -17 -47z"/>
<path d="M2702 1054 c-34 -23 -30 -75 7 -97 38 -22 63 -21 95 4 34 26 34 62 0
88 -32 25 -71 27 -102 5z"/>
<path d="M2906 1049 c-34 -26 -34 -62 0 -88 30 -24 55 -26 87 -10 29 16 37 28
37 61 0 54 -74 76 -124 37z"/>
<path d="M3110 1052 c-52 -42 -10 -119 58 -108 46 7 62 23 62 62 0 57 -72 85
-120 46z"/>
<path d="M6542 1054 c-15 -10 -22 -25 -22 -49 0 -39 29 -65 73 -65 31 0 77 39
77 65 0 9 -11 27 -25 40 -28 29 -70 32 -103 9z"/>
<path d="M6755 1059 c-26 -16 -35 -29 -35 -56 0 -26 44 -63 75 -63 31 0 75 37
75 64 0 12 -6 30 -13 39 -15 22 -76 31 -102 16z"/>
<path d="M6945 1045 c-14 -13 -25 -31 -25 -40 0 -26 46 -65 77 -65 44 0 73 26
73 65 0 63 -78 88 -125 40z"/>
</g>
</svg>
