<?xml version="1.0" standalone="no"?>
<!DOCTYPE svg PUBLIC "-//W3C//DTD SVG 20010904//EN"
 "http://www.w3.org/TR/2001/REC-SVG-20010904/DTD/svg10.dtd">
<svg version="1.0" xmlns="http://www.w3.org/2000/svg"
 width="500.000000pt" height="500.000000pt" viewBox="0 0 500.000000 500.000000"
 preserveAspectRatio="xMidYMid meet">

<g transform="translate(0.000000,500.000000) scale(0.100000,-0.100000)"
fill="#000000" stroke="none">
<path d="M2505 4990 c-128 -20 -214 -70 -355 -203 -52 -50 -133 -127 -180
-172 -433 -412 -658 -625 -688 -650 -21 -16 -73 -66 -117 -110 -44 -44 -217
-210 -385 -369 -168 -160 -383 -364 -479 -455 -101 -97 -190 -190 -212 -224
-127 -195 -109 -439 44 -617 17 -19 105 -113 196 -209 91 -96 171 -179 176
-185 6 -6 55 -58 110 -116 141 -148 444 -468 545 -575 47 -49 130 -137 185
-195 226 -237 475 -499 550 -579 215 -228 273 -272 401 -305 126 -33 280 -11
388 54 54 33 101 76 511 464 99 94 225 214 280 266 168 160 275 262 385 366
58 55 283 269 500 474 217 206 423 401 456 435 150 147 210 327 165 497 -38
146 -58 175 -300 427 -92 97 -180 190 -195 206 -15 17 -64 68 -109 115 -45 47
-156 164 -247 260 -91 96 -178 188 -195 206 -132 138 -213 223 -365 384 -96
101 -215 227 -265 279 -49 53 -133 141 -185 196 -159 168 -223 229 -274 263
-87 57 -237 88 -341 72z m204 -117 c82 -27 135 -70 296 -241 88 -92 238 -250
335 -352 97 -102 198 -209 224 -237 l49 -53 -1079 0 -1079 0 65 63 c36 34 146
139 245 232 99 94 232 220 295 280 291 279 315 297 430 321 65 14 155 9 219
-13z m476 -1106 c-71 -67 -166 -157 -210 -200 l-80 -77 -81 84 c-89 93 -142
125 -218 133 -90 9 -145 -20 -291 -155 -70 -64 -131 -119 -136 -120 -5 -2 -76
65 -157 150 -81 84 -180 188 -221 231 l-74 77 799 0 799 0 -130 -123z m394
-14 c61 -65 112 -120 113 -123 2 -3 -78 -82 -177 -176 -99 -94 -209 -198 -245
-232 l-65 -62 -108 112 c-59 62 -112 121 -118 131 -11 19 -6 25 192 212 47 44
126 119 176 168 51 48 99 87 107 87 8 0 64 -53 125 -117z m-2199 3 c0 -2 -8
-10 -17 -17 -16 -13 -17 -12 -4 4 13 16 21 21 21 13z m383 -386 l158 -165 -53
-50 c-30 -27 -85 -79 -122 -114 l-69 -64 -91 95 c-50 52 -151 156 -223 232
-73 76 -133 144 -133 152 0 7 51 63 113 123 l112 111 75 -78 c42 -42 146 -151
233 -242z m2417 25 c52 -55 140 -148 195 -205 457 -481 454 -478 484 -546 45
-100 46 -225 5 -330 -29 -73 -70 -118 -339 -373 -55 -52 -147 -140 -205 -195
-58 -55 -148 -140 -200 -190 -52 -49 -116 -110 -142 -135 l-48 -45 0 1139 0
1140 78 -80 c42 -44 120 -125 172 -180z m-3098 -1140 l3 -930 -80 85 c-44 47
-121 128 -171 180 -49 52 -124 131 -165 174 -40 43 -90 95 -109 115 -156 162
-347 366 -374 402 -95 127 -109 300 -34 441 31 59 90 119 453 463 99 94 227
215 285 271 58 55 123 117 145 137 l40 35 2 -221 c2 -122 4 -640 5 -1152z
m518 655 c0 -3 -49 -49 -110 -103 -129 -117 -164 -172 -163 -266 1 -89 24
-129 169 -289 l134 -147 -43 -39 c-23 -21 -114 -106 -202 -190 -88 -83 -170
-160 -183 -170 l-22 -19 0 829 1 829 209 -215 c115 -118 209 -217 210 -220z
m2230 -407 l-1 -818 -145 150 c-79 83 -179 188 -221 233 l-77 84 123 116 c140
132 161 166 161 265 -1 101 -18 127 -247 375 l-23 24 28 21 c15 12 63 55 107
97 191 183 285 270 290 270 3 0 5 -368 5 -817z m-1017 411 l87 -86 0 -51 c-1
-92 24 -87 -400 -87 -429 0 -410 -4 -410 84 0 50 1 51 87 138 l88 88 230 0
231 0 87 -86z m133 -476 l29 -33 -32 29 c-31 28 -38 36 -30 36 2 0 16 -15 33
-32z m55 -55 c13 -16 12 -17 -3 -4 -17 13 -22 21 -14 21 2 0 10 -8 17 -17z
m-119 -30 c13 -12 18 -31 18 -72 l0 -56 -82 -82 -83 -83 -235 0 -235 0 -88 88
c-83 83 -87 89 -87 132 0 31 6 50 22 67 l21 23 365 0 c326 0 367 -2 384 -17z
m554 -405 c246 -252 324 -336 324 -351 0 -15 -225 -237 -240 -237 -11 0 -461
473 -461 485 0 11 235 224 247 225 6 0 65 -55 130 -122z m-1452 -232 c45 -48
82 -91 84 -95 1 -4 -28 -36 -65 -71 -38 -35 -137 -129 -221 -209 -85 -80 -165
-150 -179 -156 -24 -9 -33 -3 -139 110 -63 66 -113 123 -111 126 1 3 81 79
177 170 96 90 204 192 240 226 l65 63 34 -38 c19 -20 71 -77 115 -126z m1097
-351 c63 -66 137 -144 164 -172 l48 -53 -789 0 -789 0 60 57 c33 31 129 122
213 202 l153 145 67 -69 c81 -82 134 -108 217 -108 84 0 136 30 279 161 l118
109 72 -76 c39 -42 123 -130 187 -196z m-1820 -2 c13 -16 12 -17 -3 -4 -10 7
-18 15 -18 17 0 8 8 3 21 -13z m2244 -391 c-39 -37 -149 -141 -245 -232 -96
-91 -220 -208 -275 -261 -278 -265 -316 -298 -379 -329 -134 -66 -283 -56
-417 27 -19 12 -107 98 -194 190 -87 92 -238 251 -335 353 -97 102 -204 215
-239 253 l-64 67 1109 0 1109 -1 -70 -67z"/>
<path d="M2162 4507 l-122 -122 0 -85 0 -86 53 -52 53 -52 405 0 405 0 52 53
52 53 0 89 0 90 -118 118 -117 117 -270 0 -270 0 -123 -123z"/>
<path d="M4117 2982 l-47 -48 0 -410 0 -410 48 -47 48 -47 95 0 94 0 113 113
112 112 0 277 0 277 -116 115 -116 116 -92 0 -92 0 -47 -48z"/>
<path d="M537 2902 l-117 -117 0 -271 0 -272 121 -121 122 -121 86 0 87 0 52
53 52 53 0 405 0 405 -53 52 -53 52 -89 0 -90 0 -118 -118z"/>
<path d="M1969 861 l-49 -48 0 -84 0 -84 122 -122 121 -123 271 0 271 0 117
117 118 118 0 90 0 91 -48 47 -48 47 -413 0 -414 0 -48 -49z"/>
</g>
</svg>
