<?xml version="1.0" standalone="no"?>
<!DOCTYPE svg PUBLIC "-//W3C//DTD SVG 20010904//EN"
 "http://www.w3.org/TR/2001/REC-SVG-20010904/DTD/svg10.dtd">
<svg version="1.0" xmlns="http://www.w3.org/2000/svg"
 width="465.000000pt" height="537.000000pt" viewBox="0 0 465.000000 537.000000"
 preserveAspectRatio="xMidYMid meet">

<g transform="translate(0.000000,537.000000) scale(0.100000,-0.100000)"
fill="#000000" stroke="none">
<path d="M1144 5010 c-213 -30 -361 -135 -445 -315 -94 -203 -115 -452 -125
-1465 -9 -856 11 -1262 68 -1375 34 -66 102 -157 161 -212 168 -159 352 -214
896 -268 85 -8 156 -17 159 -20 3 -2 -9 -31 -26 -62 -46 -87 -62 -155 -62
-258 0 -109 18 -183 69 -290 146 -305 505 -502 812 -445 95 18 225 94 609 354
206 140 514 346 683 457 330 217 392 269 440 371 85 179 44 373 -112 529 -152
152 -365 215 -541 160 l-63 -20 6 58 c8 72 60 223 132 379 149 327 159 489 43
713 -117 227 -374 374 -593 339 -64 -10 -342 -125 -1129 -464 -148 -64 -280
-119 -294 -123 -22 -5 -24 -3 -17 18 46 148 180 289 377 397 135 74 208 95
338 96 144 1 192 21 240 97 36 56 74 90 134 122 34 18 57 21 136 21 115 0 146
-10 389 -124 201 -94 249 -104 262 -56 5 16 13 79 19 140 37 398 -29 656 -215
841 -97 97 -194 154 -349 206 -182 62 -298 82 -476 83 -176 1 -236 -11 -357
-71 l-73 -35 -152 70 c-262 120 -398 151 -693 157 -104 2 -218 0 -251 -5z
m705 -539 c61 -44 88 -143 57 -214 -55 -129 -231 -143 -309 -25 -25 38 -28 51
-25 104 4 71 34 119 90 148 48 24 143 18 187 -13z m1629 -964 c213 -87 354
-312 339 -542 -7 -96 -33 -176 -120 -362 -36 -76 -77 -172 -91 -213 -22 -68
-30 -103 -53 -254 l-8 -49 -115 -59 c-63 -33 -144 -77 -180 -98 -102 -60 -736
-407 -935 -511 -202 -106 -263 -156 -310 -255 -84 -178 -45 -357 114 -515 164
-165 376 -212 552 -123 62 31 133 112 154 175 86 257 -210 553 -476 476 -240
-70 -236 -385 5 -476 31 -11 75 -21 98 -21 77 0 168 63 168 118 0 14 -14 25
-50 40 l-51 21 -29 -32 c-23 -26 -35 -32 -68 -31 -105 3 -163 102 -113 194 54
103 225 107 329 7 113 -108 101 -273 -24 -356 -55 -36 -93 -45 -177 -39 -128
8 -261 98 -319 216 -29 59 -33 76 -33 152 0 77 3 90 31 140 56 100 185 171
308 169 183 -2 377 -130 463 -305 37 -77 38 -82 38 -189 0 -100 -3 -115 -28
-166 -66 -136 -213 -219 -387 -219 -246 0 -490 169 -593 413 -25 60 -31 89
-35 172 -6 142 13 194 132 355 205 276 274 396 338 583 30 87 32 100 32 242 0
143 -2 154 -33 245 -79 231 -203 375 -416 480 l-100 49 40 17 c22 9 326 138
675 287 349 148 653 276 675 283 62 19 179 11 253 -19z m-1665 -702 c92 -24
172 -71 253 -147 84 -80 138 -165 175 -273 21 -62 24 -88 24 -230 0 -88 -4
-173 -8 -188 -6 -24 -23 -35 -90 -66 -133 -62 -134 -62 -87 5 73 104 114 293
91 418 -27 144 -141 292 -276 356 -60 29 -83 34 -160 38 -120 5 -187 -19 -262
-94 -162 -162 -159 -429 6 -594 131 -131 300 -146 417 -38 174 161 84 487
-141 506 -102 8 -191 -63 -202 -161 -5 -43 -4 -44 27 -51 52 -10 80 -7 80 8 0
8 12 28 26 45 21 26 33 31 67 31 73 -1 117 -53 117 -138 0 -107 -69 -182 -168
-182 -67 0 -117 25 -169 84 -112 128 -74 346 76 430 184 102 422 -55 461 -304
39 -253 -160 -471 -392 -430 -242 43 -407 258 -408 531 0 124 39 225 124 317
113 123 262 168 419 127z m2172 -727 c118 -29 240 -130 296 -245 32 -63 34
-74 34 -168 0 -89 -3 -106 -27 -151 -15 -29 -47 -71 -70 -93 -50 -49 -1182
-806 -1175 -786 3 7 9 44 12 81 27 272 -180 551 -477 646 l-99 31 73 40 c40
21 249 134 463 249 215 116 455 248 535 293 210 120 291 139 435 103z"/>
</g>
</svg>
